<?xml version="1.0" encoding="utf-8"?>
<!-- Generator: Adobe Illustrator 27.0.1, SVG Export Plug-In . SVG Version: 6.00 Build 0)  -->
<svg version="1.1" id="Layer_1" xmlns="http://www.w3.org/2000/svg" xmlns:xlink="http://www.w3.org/1999/xlink" x="0px" y="0px"
	 viewBox="0 0 60 60" style="enable-background:new 0 0 60 60;" xml:space="preserve">
<style type="text/css">
	.st0{fill:none;stroke:#00214D;stroke-width:2;stroke-linecap:round;stroke-linejoin:round;}
	.st1{enable-background:new    ;}
	.st2{fill:#00214D;}
</style>
<g id="Group_17926" transform="translate(1605 3821)">
	<path id="Path_37620" class="st0" d="M-1604-3810h42.5l15.5,19l-15.5,19h-42.5V-3810z"/>
	<g class="st1">
		<path class="st2" d="M-1597.7-3784v-12.9h2.5l5.3,8.6v-8.6h2.4v12.9h-2.6l-5.2-8.4v8.4H-1597.7z"/>
		<path class="st2" d="M-1584.7-3784v-12.9h9.6v2.2h-7v2.9h6.5v2.2h-6.5v3.5h7.2v2.2H-1584.7z"/>
		<path class="st2" d="M-1570.9-3784l-3.1-12.9h2.7l1.9,8.9l2.4-8.9h3.1l2.3,9l2-9h2.6l-3.1,12.9h-2.8l-2.6-9.6l-2.6,9.6H-1570.9z"
			/>
	</g>
</g>
</svg>
