<?xml version="1.0" encoding="UTF-8"?>
<svg xmlns="http://www.w3.org/2000/svg" version="1.1" viewBox="0 0 512 512">
  <!-- Generator: Adobe Illustrator 28.6.0, SVG Export Plug-In . SVG Version: 1.2.0 Build 709)  -->
  <g>
    <g id="Layer_1">
      <g id="Layer_1-2" data-name="Layer_1">
        <path d="M364.1,290.8h-8.3,8.3Z"/>
        <path d="M260.2,232.6c-22.2-44.3-84.5-126.1-141.4-166.3C63.4,27.5,42.6,34.4,30.1,40c-16.6,8.3-19.4,31.9-19.4,47.1s8.3,117.8,12.5,134.4c16.6,56.8,77.6,76.2,133,69.3h8.3-8.3c-81.8,12.5-153.8,41.6-58.2,146.9,103.9,108.1,142.7-23.6,162.1-90.1,19.4,66.5,43,192.6,160.8,90.1,88.7-90.1,24.9-134.4-56.8-146.9h-8.3,8.3c55.4,5.5,116.4-12.5,133-69.3,5.5-16.6,12.5-120.6,12.5-134.4s-2.8-38.8-19.4-45.7c-13.9-5.5-34.6-12.5-90.1,26.3-56.8,40.2-119.2,122-141.4,166.3l1.4-1.4h0Z"/>
      </g>
    </g>
  </g>
</svg>