<?xml version="1.0" encoding="UTF-8"?>
<svg id="Layer_1" xmlns="http://www.w3.org/2000/svg" version="1.1" viewBox="0 0 512 512">
	<defs>
		<style>
			.icon-fill {
				fill: #142f56;
				opacity: 1;
			}
		</style>
	</defs>
  <path class="icon-fill" d="M256,480c141.4,0,256-107.5,256-240S397.4,0,256,0,0,107.5,0,240s19.2,104.3,51.6,144.5L2.8,476.8c-4.8,9-3.3,20,3.6,27.5s17.8,9.8,27.1,5.8l118.4-50.7c31.8,13.2,67,20.6,104.1,20.6ZM256,143.4c-21.3,0-38.7,17.4-38.7,38.7s-14.2,31.8-31.8,31.8-31.8-14.2-31.8-31.8c0-56.4,45.8-102.3,102.3-102.3s102.3,45.8,102.3,102.3-45.7,85.7-71.1,95.1c-3,14.4-15.9,25.2-31.1,25.2s-31.8-14.2-31.8-31.8c0-26.8,19.3-45.7,39.1-52.3,8.1-2.6,16.3-6.8,22.3-12.6,5-5,9.1-11.9,9.1-23.4,0-21.3-17.4-38.7-38.7-38.7h0ZM256,403.2c-20.5,0-37.1-16.6-37.1-37.1s16.6-37.1,37.1-37.1,37.1,16.6,37.1,37.1-16.6,37.1-37.1,37.1Z"/>
</svg>