<?xml version="1.0" encoding="UTF-8"?>
<svg id="Layer_1" xmlns="http://www.w3.org/2000/svg" version="1.1" viewBox="0 0 60 60">
  <!-- Generator: Adobe Illustrator 29.3.1, SVG Export Plug-In . SVG Version: 2.1.0 Build 151)  -->
  <defs>
    <style>
      .st0, .st1, .st2 {
        fill: #fff;
      }

      .st0, .st3, .st4 {
        fill-rule: evenodd;
      }

      .st1 {
        stroke: #1d477f;
        stroke-miterlimit: 10;
        stroke-width: .7px;
      }

      .st3, .st5 {
        fill: #1d477f;
      }

      .st4 {
        fill: #d8d6d6;
      }

      .st6 {
        fill: #939598;
      }
    </style>
  </defs>
  <g id="vector_face">
    <path class="st4" d="M43,33.9c0-.3.3-.5.2-.8,0,0-.2-.2-.3-.2-.2,0,0,.2-.2.5,0,.3-.5.5-.6.6"/>
    <path class="st3" d="M17.3,34.3c-.4-.6-.4-1.5-.6-2.2-.6-.1-1.1.5-1.5,0,0-.1-.4-.7-.4-.9v-.5c-.2,0-.2.3-.5.3-.5,0-.6-1-.6-1.6h-.7c-.4.2-.4.7-.6,1,0,.2-.3.4-.5.5-.7,0-1-1.4-1-2.1s-.1-1.5.2-2v-.5c-.2,0-.3.1-.4.1-.3,0-.2-.5-.2-.9s.2-.7.3-1,.4-.7.5-.9c0-.4-.1-.9-.2-1.1-.7,0-.6-.5-.6-1,0,0-.1,0-.2-.1-.2.1-.2.4-.4.5s-.4.2-.7.3c-.9-.7-.4-2.2.2-3-.2-.3-.5-.2-.5-.7s.1-.7.3-1c.1-.3.3-.6.4-.8.3-.5.8-.7.8-1.5h-.3c-.2,0,0-.2-.2-.2-.3-.1-.3.2-.5.2s-.3-.3-.3-.6.4-1,.7-1.3c.6-.6,1.5-1,1.9-1.5,0-.3.4-.8,0-1.1.2-.4.6-.5.7-.9,0-.2-.1-.3-.3-.4-.3,0-.6.4-.9.4s-.4-.2-.5-.4c0-.2.3-.8.5-.9.2-.2.6-.5.8-.7.3-.2.9,0,1.1-.4.5-.5.8-1.2,1.2-1.7.3-.4.8-.6,1.2-.7.5,0,1.1-.2,1.4-.5.2,0,.2-.4.3-.6.3-.5.7-.9,1.4-.9.5-.3,1.3-.4,1.9-.4h.5c.2,0,.5-.3.7-.5.2-.1.3-.3.4-.4.4-.2,1-.2,1.4-.3.4-.2.7-.6,1.1-.9,0,0,.2,0,.2,0,.6-.2,1-.2,1.7-.3.3.2.5.2.9.3.2,0,.4.2.8,0,.8-.2,1.7-.9,2.7-.7C31.2-.3,31.4,0,31.6.2c1,.2,2-.3,2.9,0,.4,0,.7.2,1,.2.5.5.7,1.2,1.8,1.1.3.1.6.4.9.5h1.1c.5,0,.9.3,1.3.5.2,0,.4.2.5.3s0,.3.3.5c.2.3.8.6,1.3.7h.4c.4,0,.9.3,1.3.5.8.4,1.3,1,1.6,1.8,0,.7.5.6.8.9.3.4.2,1,.6,1.1.2,0,.4,0,.7.1.5.1,1.4.7,1.7,1,.2.2.6,1.3.2,1.5-.3.1-.6-.3-.9-.3s-.5.2-.4.5c0,.1.2.1.3.2.2.2.2.5.4.9,0,.3.3.6.3,1s-.2.7,0,1c0,.1.4.1.5.2.2.2.4.6.5,1,.2.6.4.9.5,1.6,0,.2,0,.5,0,.6,0,.4-.6.7-1,.4-.2-.1-.3-.7-.7-.3,0,.6.6,1.2.5,1.9-.3.1-.5.5-.8.7s-.8.3-1,.7c.2.2.3.4.5.6,0,0,.3,0,.4.1.2.2.3.5.3.8-.2.3-.7.8-.5,1.3,0,.2.4.2.6.3.5.4.8,1.9.9,2.8,0,.4,0,1-.2,1.5,0,.2-.2.6-.4.6-.7.2-.4-1.2-.7-1.7-.2-.4-.9-.3-1.1.1,0,.7.4,2.1-.5,2.2,0,0,0,.2,0,.3-.6.2-.9.7-1.6.8-.3.3-.2,1.2-.6,1.5-.2.2-.7.5-.9.7-.3.2-.4.4-.8.7"/>
    <path class="st0" d="M36,17.4c-.2-.2-.5-.4-.8-.5-.2,0-.4.1-.5.1-.7.1-1.1-.2-1.5-.5-.2-.2-.5-.5-.8-.5h0c0,.3.5.6.2,1,0,.2-.5.2-.8.1-.1.2-.1.4-.2.6,0,.1-.2.2-.2.3s0,.4.1.5.4.2.6.3c.2.1.5.2.6.4.5.7-.7,1-1.2.6-.2.2-.5.2-.8.2h-.4c-.2,0-.6-.2-.7-.4-.3-.3-.3-.8-.6-1.1-.6-.2-1.2,0-1.6-.2-.7-.2-1-1-1.2-1.7-.6.2-1.2.5-1,1.4-.2.5-.7.6-1.2.7-.4.3-.2.9-.6,1.2-.3.2-.6.2-.8.5-.3.5,0,.9.2,1.6,2-.4,4.6-.3,6.6,0,.3.2.6.4.7.8.5-.2,1.3-.3,1.8,0v-.3c.4-.5,1.2-.6,2.1-.6,1.4-.1,3-.2,4.1,0-.3-.4,0-1.3-.2-1.9-.3-.2-.6-.2-.7-.5-.2-.4,0-1.1,0-1.5-.5,0-.6-.5-.9-.8l-.2.2Z"/>
    <path class="st0" d="M38.5,22.9c-.2-.1-.6,0-1-.1-.3,0-.6-.1-.9-.1-1.6,0-3.3,0-4.3.5v.3c0,.2,0,.2,0,.3,0,.5.3,1,.7,1.2.2.2.7.3,1.1.4,1.2.2,2.8,0,3.8,0,.2-.1.5-.2.7-.3.2-.6.4-1.7,0-2.1h0Z"/>
    <path class="st0" d="M23.5,25.6c1.3.2,3.2.3,4.3,0,.8-.3,1.3-.8,1.4-1.8,0-.8-.4-.8-1.1-.9-1.3-.2-2.7,0-4-.1-.6,0-1.8.2-2,.5-.1.2-.2.5-.2.8s.2.9.4,1.3c.3.1.7.3,1.1.4v-.2Z"/>
    <path class="st0" d="M35.8,34.9c.7-.8,1.1-1.7,1.6-2.8.2-.6.5-1.2.7-1.8,0-.7,0-1.4.2-2.2v-2.1c-2.6.2-6.5.7-6.5-2.5-.6-.2-1.3,0-1.8.1.2,1-.4,1.6-.8,2.3-1,.6-2.4.7-3.7.7s-1.8-.2-2.6-.4v1.8c0,.8.3,1.5.4,2.1v.6c0,.7.3,1.1.6,1.7.3.7.7,1.3,1.2,1.9"/>
    <path class="st3" d="M37,21.6c-.4.3-.8,0-1.4-.1-.7,0-1.5,0-2.1.2-.3,0-.6,0-.8.1,0,0-.2.1-.3.1-.3,0-.5-.3-.5-.5,0-.4.3-.6.5-.8.9-.5,2.5-.8,3.6-.2,0,0,.2.2.4.3.3.2.8.5.7.9h-.1Z"/>
    <path class="st3" d="M28.6,22h-.3c-1.2,0-2.4-.4-3.5-.5-.6,0-1,.5-1.6.3,0-.6.4-1,.9-1.3s1.4-.4,2.3-.3c.6,0,1.5.2,1.7.4,0,0,.1.2.2.3l.2.2c.1.2.2.6,0,.9h0Z"/>
  </g>
  <g id="circle_vector">
    <path class="st1" d="M46.7,43.6c0,8.9-7.2,16.2-16.2,16.2s-16.2-7.2-16.2-16.2,7.2-16.2,16.2-16.2,16.2,7.2,16.2,16.2Z"/>
    <circle class="st1" cx="30.5" cy="43.6" r="9.7"/>
    <g>
      <path class="st6" d="M43.1,56.6v-.2h-.9v.2h.3v1.3h.2v-1.3h.4Z"/>
      <path class="st6" d="M44.6,56.3h0l-.5,1.1-.5-1.1h0l-.3,1.6h.2l.2-.8.4.9h0l.4-.9.2.8h.2s-.3-1.6-.3-1.6Z"/>
    </g>
    <g>
      <path class="st5" d="M26.3,45.2c.6.7,1.2,1.4,1.7,2.2.9,1.4-1.3,2.9-2.3,1.5,0,0-.3-.4-.7-1-.1-.2-.3-.4-.5-.6-.3.8-.5,1.5-.6,2.1-.2.8-1,1.1-1.6.9-.6-.2-1.2-.7-1-1.6.7-2.6,2.4-7,3.3-9.4,0,0-.1-.2-.1-.4-.2-.6.1-1.4,1-1.6,1.3-.3,3.1-.6,4.3-.2,1.6.5,2.3,2,1.3,3.7-.8,1.4-2.4,2.8-4.7,4.4h0ZM27.3,39.6c-.2.6-.6,1.5-.9,2.4,1-.8,2-1.6,2.4-2.4h0c-.3,0-.9,0-1.5,0Z"/>
      <path class="st5" d="M34.4,44.8c.5.6,1.5,2,1.9,2.9.4.8,0,1.5-.7,1.7-.6.3-1.4.2-1.8-.6-.4-.7-1-1.6-1.6-2.3-.3,1-.6,1.9-.7,2.6-.1.7-1,1-1.6,1s-1.3-.7-1-1.8c.7-2.6,2.5-7.4,3.3-9.9.3-.8,1.1-1,1.7-.8.6.2,1.2.8.9,1.6-.2.6-.6,1.5-.9,2.5,1.4-1.3,3-2.9,3.5-3.7.5-.7,1.3-.7,1.8-.4s.9,1.1.4,1.8c-.7,1-3.7,4-5.4,5.4h.2Z"/>
    </g>
    <path class="st3" d="M18.7,48.4c.5,0,.5.4.8.4s.6,0,.8,0c0,.2,0,.4-.1.7,0,.3.7.8.3,1h-.8c-.3.2-.2.6-.7.7h0c0-.2-.1-.5-.2-.7-.2,0-.6-.3-.8-.5h0c.2-.2.3-.4.5-.5.1-.3,0-.8.2-1.1Z"/>
    <path class="st3" d="M41.2,48.3c.4,0,.5.2.7.3.4,0,.7-.3,1-.2h0v1c0,.3.3.2.3.6l-.2.2c-1.1,0-.6.6-1.3.9h-.2c-.2-.2-.3-.6-.5-.8-.3,0-.7,0-.9-.3v-.2c.2-.3.6-.4.7-.7,0-.3,0-.6,0-.9h.3Z"/>
  </g>
  <g id="letters_Image">
    <path class="st2" d="M20.7,32.9v.3c0,.2,0,.5.2.7v.2c.1.2.2.3.3.5,0,0,.2.2.3.4.2.2.4.3.7.4.1,0,.3,0,.4,0h.6c.2,0,.3-.2.5-.3s.3-.3.4-.5c.1-.3.1-.6,0-.8,0-.2-.1-.4-.2-.6,0-.2-.1-.3-.2-.5h0c-.2-.4-.4-.7-.8-.9-.3-.2-.6-.3-1-.2h-.2c-.4,0-.7.2-1,.5s-.3.5-.3.8h.3ZM33.2,30.9v.2c.2.6.3,1.1.5,1.7,0,.2,0,.3.2.4s.3,0,.4,0c0,0,.2-.3.2-.4s0-.3.2-.4c0-.4.3-.7.4-1.1,0-.3.2-.7.3-1,0-.2,0-.3.2-.5h0c0-.3-.2-.4-.4-.5-.2,0-.3,0-.3.2v.3c-.2.6-.4,1.2-.6,1.8h0c0-.1,0-.2,0-.4,0-.4-.2-.7-.3-1.1,0-.3-.2-.6-.3-1,0-.3-.3-.4-.6-.2,0,0,0,0-.2.2v.4c0,.3,0,.5,0,.8,0,.3,0,.6,0,.8,0,.3,0,.6,0,.9,0,.2,0,.3,0,.5v.3c0,.2.3.2.4,0,0,0,0-.3.2-.4v-.4c0-.3,0-.5.2-.8v-.3h0ZM28.3,56.9c.2,0,.4-.2.5-.3h0c.2-.2.3-.4.4-.7v-.5h0c0,0-.1-.3-.2-.3-.1,0-.2-.2-.4-.3-.4-.2-.8-.3-1.2-.3s-.3,0-.4.2v.3c-.1.4-.2.8-.4,1.2-.1.5-.3,1-.4,1.5h0v.4c0,.2.4.4.6.2h0c0-.4.2-.7.2-.9h.3l.3.6c0,.2.2.4.3.6s.2.3.5.2c.1,0,.3,0,.3-.3s0-.3-.1-.4c0,0,0-.2-.1-.3l-.3-.6h0c0,0,.1-.3.1-.3ZM20.8,35.8v-.5c0-.2,0-.3-.1-.5,0,0-.1-.2-.2-.3s-.3-.2-.4-.3c-.2,0-.4,0-.6,0h-.4c-.1,0-.3,0-.4.2-.3.3-.6.6-.7,1.1,0,.2,0,.3.1.4,0,0,.2,0,.3.2.2,0,.4.3.7.4.5.3,1,.6,1.5.9,0,0,.2,0,.3.2.1,0,.2,0,.3,0s.3,0,.4-.2c0-.2,0-.3-.1-.4-.2,0-.4-.2-.6-.4-.2,0-.2,0-.1-.3h1.4c.1,0,.3,0,.3-.2v-.3s-.2,0-.3,0h-1.4ZM30.2,29.4h1.9c0-.1,0-.3,0-.5,0,0,0-.1-.1-.1h-2.3s-.2,0-.2.1h-.1v3.5c0,.2,0,.3.2.4.1,0,.2,0,.4,0h1.2c.1,0,.3,0,.4,0h0c.1,0,0-.4-.1-.5h-1.4v-.9s0-.1.1-.1h1.4c.1,0,.2-.1.3-.2v-.3c0-.1-.2-.2-.4-.2-.3,0-.7-.1-1,0h-.3v-1.2ZM33.6,54.3h-.6c-.4.2-.6.5-.7.9v.3c0,0,0,.3,0,.4h0s0,.2.2.2h0c.2,0,.5.2.8.3.3,0,.6,0,.8.2,0,0,.2,0,.2.2v.2h0c0,0-.3,0-.5,0,0,0-.2,0-.4,0,0,0-.2,0-.2,0,0,0-.2,0-.3,0-.2,0-.5.2-.4.5,0,0,0,.2.2.3.2.2.3.3.5.3s.3,0,.5,0h.3c.3,0,.6,0,.8-.4h0c0,0,.2-.2.3-.3,0,0,0-.3,0-.4v-.2h0c0-.4-.3-.6-.6-.8,0,0-.2,0-.3,0h-.8c-.2,0-.3,0-.5,0-.2,0-.2,0-.2-.3v-.3s0,0,.2,0h.2c0,0,.2,0,.3,0h0c0,0,.2.2.3,0,0,0,.2-.2.2-.3v-.3s0-.2-.2-.2h0c-.2,0-.4-.2-.6,0h.2ZM38.3,55.7v-.4c0-.2-.2-.3-.3-.4-.3-.2-.7-.3-1.1-.2h-.7c0,0-.2,0-.3-.2v-.6s0,0,.2,0c.2,0,.4,0,.5,0,0,0,.2,0,.3.2h0s0,0,.2,0h0v-.3c0-.2-.2-.3-.4-.4-.2,0-.4-.2-.6-.2h-.4c-.2,0-.4.2-.5.3-.2.2-.3.3-.3.6v.2c0,.2,0,.4,0,.6,0,.2.2.4.5.5h1.6c0,0,.2,0,.2,0,0,.2.2.3,0,.5,0,0-.2.2-.3.2h-.5c0,0-.3-.2-.4-.3,0,0-.4,0-.5,0v.2c0,.2,0,.3.3.5s.3.2.4.3c0,0,.2,0,.4,0h.5c.3,0,.5-.3.7-.6,0-.2.2-.5.2-.8v.2ZM43.1,35.7h0c-.2-.6-.4-1-.8-1.3-.2,0-.4-.2-.7,0,0,0-.2,0-.3.2-.2,0-.3.3-.5.4-.2.2-.5.4-.7.6-.2.2-.5.4-.7.6,0,0-.2.2-.3.2,0,0,0,0,0,.2v.2h0v.2s0,.2.2.2l.3.3c.2,0,.4.3.6.4.3,0,.6.2.9,0,.2,0,.4-.2.6-.3.2,0,.4-.2.5-.4.2,0,.3-.3.4-.4s.2-.3.3-.4c0-.2.2-.4,0-.7h.2ZM30.5,55.3h1.3c.2,0,.2,0,.3-.3,0-.2-.1-.4-.3-.3h-1.6s0,0-.1.2v3.2c0,.2,0,.3.2.4h2c0,0,.2-.2.2-.3,0-.2,0-.3-.2-.4h-1.5q-.1,0-.1,0v-.6h0q0,0,.1,0h1c.1,0,.3,0,.4,0,0,0,.2,0,.2-.2v-.3h-1.5q-.1,0-.1,0v-.8l-.3-.2ZM37.8,32.2h0c0-.2.2-.4.3-.6,0-.1.2-.3.2-.4v-.4c0-.2-.3-.2-.4-.2-.2,0-.3.1-.3.3h0c0,.2,0,.4-.2.5-.2.3-.3.6-.5.9s-.4.7-.6,1c0,0-.2.3-.2.4v.4h0c0,0,.3,0,.4,0,0,0,0,0,.2,0h0c0,0,.2-.3.3-.4h0v1.7c0,.2.3.2.4,0,0,0,0-.2,0-.3v-1.9h.6c.4,0,.7,0,1.1,0,0,0,.3,0,.4,0,0,0,.2-.2.2-.4s-.2-.3-.4-.3h-.5c-.2,0-.5,0-.7,0h-.6.1ZM24.1,56.1h.2c.3,0,.5,0,.8,0h.3s.2,0,.3,0c.1,0,.3,0,.4-.2,0,0,.2-.2.2-.3,0,0,.1-.2.1-.3v-.7c-.1-.3-.3-.6-.6-.9,0,0-.1,0-.2,0-.1,0-.2,0-.3-.2-.2,0-.5,0-.6.2,0,0,0,0-.1.2-.1.2-.3.5-.4.7-.1.3-.3.5-.5.8s-.3.5-.5.8c0,0-.1.3-.2.4,0,.2,0,.4.2.5s.4,0,.4-.2h0c0-.2.2-.3.3-.5h0c0,0,.2-.2.2-.2ZM27.1,29.8h0c.1.5.2.9.4,1.4.1.4.2.9.3,1.3,0,0,0,.2.2.3h.3c.1,0,.2,0,.2-.3v-.8c0-.4-.2-.7-.2-1.1s-.1-.6-.2-.9v-.2h0c.3,0,.5-.1.8-.1,0,0,.1,0,.2-.1s0-.3,0-.4h-.1c0-.1-.2-.2-.3-.1h-.2c-.3,0-.5,0-.8.1h-.1c-.2,0-.4,0-.6.1h-.1c-.1,0-.3.1-.4.2-.2.1-.2.3-.2.5s.1.2.2.2h.3c.2,0,.4,0,.6-.1h-.3ZM24.9,30.6c.2,0,.3-.1.5-.2h.1c.1,0,.3-.2.3-.4s-.1-.3-.3-.4h-.3c-.2,0-.3.1-.5.2-.3,0-.5.2-.7.3,0,0-.2.1-.3.2-.1,0-.3.1-.4.2-.1,0-.2.2-.2.4s.2.4.5.3h.3c.1,0,.2-.1.4-.2h0c0,.2.2.4.3.5.1.2.2.5.4.7.2.4.4.8.6,1.1,0,0,.1.2.2.2h.4c.1,0,.2-.2.1-.4,0,0,0-.2-.1-.4-.2-.5-.4-.9-.6-1.4,0-.2-.2-.4-.3-.6,0,0,0-.2-.1-.3l-.3.2ZM40.8,32.8h-.2s-.2.2-.2.3l-.4.4c-.3.3-.5.6-.8.8l-.4.4c-.2.2-.3.4-.5.5,0,0,0,.2-.2.3,0,0,0,.3.2.3s.3,0,.5,0l.3-.3,1.2-1.2.3-.3.5-.5s0,0,0-.2c0-.2,0-.3-.2-.4h-.3.1Z"/>
    <g>
      <path class="st5" d="M20.7,32.9c0-.3,0-.5.3-.8.2-.3.6-.5,1-.5h.2c.3,0,.7,0,1,.2s.6.4.8.8h0c0,.2.2.4.2.6s.1.4.2.6v.8c0,.2-.2.4-.4.5-.2,0-.3.2-.5.3h-.6c-.1,0-.3,0-.4,0-.3,0-.5-.2-.7-.4-.1,0-.2-.2-.3-.4-.1-.2-.2-.3-.3-.5v-.2c-.1-.2-.1-.5-.2-.7v-.3h-.3ZM23,34.6s.2,0,.3,0h.1c.1,0,.2-.3.2-.5,0-.4-.2-.8-.5-1.1s-.3-.3-.6-.4h-.6c-.2,0-.3.2-.3.5s0,.4.1.6c0,.2.2.4.3.5.2.2.4.4.6.5.1,0,.3,0,.5,0h-.1Z"/>
      <path class="st5" d="M33.2,30.9v.3c0,.3,0,.5-.2.8v.4c0,0,0,.3-.2.4,0,0-.3,0-.4,0v-.3c0-.2,0-.3,0-.5,0-.3,0-.6,0-.9,0-.3,0-.6,0-.8,0-.3,0-.5,0-.8v-.4s0-.1.2-.2.5,0,.6.2c0,.3.2.6.3,1,0,.4.2.7.3,1.1,0,.2,0,.3,0,.5h0c.2-.7.4-1.3.6-1.9v-.3c0-.1.2-.2.3-.2.2,0,.4.1.4.4h0c0,.3,0,.4-.2.6,0,.3-.2.7-.3,1,0,.4-.3.7-.4,1.1,0,0,0,.3-.2.4,0,0,0,.3-.2.4s-.3,0-.4,0c0,0-.2-.3-.2-.4-.2-.6-.3-1.1-.5-1.7v-.2h0Z"/>
      <path class="st5" d="M28.3,56.9h0c.1.3.2.5.3.7,0,0,.1.2.1.3s.1.2.1.4-.1.3-.3.3-.4,0-.5-.2l-.3-.6-.3-.6h-.3c0,.3-.2.5-.2.8h0c-.3.3-.5,0-.6-.1v-.3h0c.1-.6.3-1.1.4-1.6.1-.4.2-.8.4-1.2v-.3c0-.2.2-.2.4-.2.4,0,.8,0,1.2.3.1,0,.3.2.4.3,0,0,.1,0,.2.2h0v.6c0,.3-.2.5-.4.7h0c-.2,0-.3.2-.5.3v.2ZM27.7,55.1c0,.4-.2.9-.3,1.3h0c.2,0,.3,0,.5,0,.1,0,.2,0,.3-.2,0,0,.1,0,.2-.2v-.2c0-.2-.2-.3-.4-.4h-.4v-.2Z"/>
      <path class="st5" d="M20.8,35.8h1.2c.1,0,.2,0,.3,0,.1,0,.1.2,0,.3,0,0-.1.2-.3.2h-1.4q0,.2.1.3c.2,0,.4.2.6.4.2,0,.2.3.1.4,0,0-.2.2-.4.2s-.2,0-.3,0c0,0-.2,0-.3-.2-.5-.3-1-.6-1.5-.9-.2,0-.4-.3-.7-.4,0,0-.2,0-.3-.2-.2,0-.2-.2-.1-.4.1-.4.4-.8.7-1.1.1,0,.2-.2.4-.2h.4c.2,0,.4,0,.6,0s.3.2.4.3c0,0,.1.2.2.3,0,0,.1.3.1.5v.5h.2ZM19.9,36.3v-.8c0-.2-.2-.4-.4-.4h-.5c-.2,0-.3.3-.4.5.3.3.7.5,1.1.7h.2Z"/>
      <path class="st5" d="M30.2,29.4v.9h1.3c.1,0,.3,0,.4.2v.3c0,.1-.1.2-.3.2h-1.4s-.1,0-.1.1v.9h1.4c.2,0,.2.4.1.5h0c0,0-.2,0-.4,0h-1.2c-.1,0-.3,0-.4,0s-.2-.3-.2-.4v-3.4h.1c0-.1.1-.1.2-.2h2.3s0,0,0,.1v.5h-1.9v.3Z"/>
      <path class="st5" d="M33.6,54.3c.2,0,.4,0,.6,0h0c0,0,.2,0,.2.2v.3c0,0,0,.2-.2.3h-.3s0,0,0,0c0,0-.2,0-.3,0h-.2s0,0-.2,0v.3q0,.2.2.3c0,0,.3,0,.5,0h.8c0,0,.2,0,.3,0,.3.2.5.4.6.8h0v.2c0,0,0,.3,0,.4,0,0,0,.2-.3.3h0c-.2.2-.5.3-.8.4h-.3c-.2,0-.4,0-.5,0-.2,0-.4-.2-.5-.3,0,0-.2-.2-.2-.3,0-.3.2-.5.4-.5s.2,0,.3,0c0,0,0,0,.2,0s.2,0,.4,0h.5v-.2c0,0,0-.2-.2-.2-.3,0-.5-.2-.8-.2s-.5,0-.8-.3h0s0-.2-.2-.2h0c0,0,0-.3,0-.4v-.3c0-.4.3-.7.7-.9h.6-.2Z"/>
      <path class="st5" d="M38.3,55.7c0,.3,0,.6-.2.8-.2.3-.4.5-.7.6h-.5c0,0-.3,0-.4,0-.2,0-.3-.2-.4-.3,0,0-.2-.3-.3-.5v-.2c0-.2.4-.2.5,0,0,0,.3.2.4.3h.5c0,0,.2,0,.3-.2,0-.2,0-.4,0-.5,0,0,0,0-.2,0h-1.6c-.2,0-.4-.3-.5-.5,0-.2,0-.4,0-.6v-.2c0-.2.2-.4.3-.6,0,0,.3-.2.5-.3,0,0,.3,0,.4,0,.2,0,.4,0,.6.2.2,0,.3.3.4.4v.2h0c0,0,0,0-.2.2h0c0,0-.2,0-.3-.2,0,0-.3-.2-.5,0,0,0-.2,0-.2,0v.6c0,0,.2.2.3.2h.7c.4,0,.8,0,1.1.2.2,0,.3.2.3.4v.4-.2Z"/>
      <path class="st5" d="M43.1,35.7c0,.3,0,.5,0,.7,0,0-.2.3-.3.4-.2,0-.3.3-.4.4-.2,0-.4.3-.5.4-.2,0-.4.2-.6.3-.3,0-.6,0-.9,0s-.4-.2-.6-.4c0,0-.2-.2-.3-.3l-.2-.2v-.2h0v-.2s0-.2,0-.2.2-.2.3-.2c.2-.2.5-.4.7-.6.2-.2.5-.4.7-.6.2,0,.3-.3.5-.4,0,0,.2-.2.3-.2.2,0,.5,0,.7,0,.4.3.6.7.8,1.2h0c0,0-.2,0-.2,0ZM42,35s0,0-.2,0l-.2.2s-.2,0-.3.2c-.2.2-.4.3-.7.5s-.5.4-.8.6h0c0,0,0,.3.2.3l.2.2c.2,0,.4.2.6,0,.2,0,.3,0,.5,0,0,0,.2,0,.3-.2,0,0,.2,0,.3-.2.2,0,.3-.3.4-.6v-.2c0-.2,0-.5-.2-.7,0,0,0-.2-.2-.2h.2Z"/>
      <path class="st5" d="M30.5,55.3v.8q0,0,.1,0h1.5c0,0,0,.2,0,.3,0,0,0,.2-.2.2s-.3,0-.4,0h-1.1v.7q0,0,.1,0h1.5c0,0,.2.2.2.4s0,.3-.2.3h-2c-.1,0-.2-.2-.2-.4v-3.2s0,0,.1-.2h1.6c.1,0,.3.2.3.3,0,.2-.1.3-.3.3h-1.3l.3.2Z"/>
      <path class="st5" d="M37.8,32.2h.6c.2,0,.5,0,.7,0h.5c0,0,.3.2.4.3,0,0,0,.3-.2.4,0,0-.2,0-.4,0-.4,0-.7,0-1.1,0h-.6v1.9c0,0,0,.2,0,.3s-.3,0-.4,0v-1.7h0c0,0-.2.3-.3.4h0s0,0-.2,0c0,0-.2,0-.4,0h0v-.4c0,0,.2-.3.2-.4.2-.3.4-.7.6-1,.2-.3.3-.6.5-.9,0-.1.2-.3.2-.4h0c0-.2.2-.4.3-.4.2,0,.3,0,.4.2v.4c0,.2,0,.3-.2.4,0,.2-.2.4-.3.6h-.1Z"/>
      <path class="st5" d="M24.1,56.1h0c0,.3-.2.4-.3.6h0c0,.2-.3.3-.4.2-.2,0-.3-.3-.2-.5,0,0,.1-.3.2-.4.1-.3.3-.5.5-.8s.3-.5.5-.8c.1-.2.3-.5.4-.7,0,0,0,0,.1-.2.1-.2.4-.3.6-.2.1,0,.2,0,.3.2,0,0,.1,0,.2,0,.3.2.5.5.6.9v.7c0,0,0,.2-.1.3,0,0-.1.2-.2.3,0,0-.2.2-.4.2,0,0-.2,0-.3,0h-.3c-.3,0-.5,0-.8,0h-.4ZM25.2,54c0,0-.7,1.2-.7,1.3.1,0,.4.2.7,0,.2,0,.4,0,.5-.3s.1-.4,0-.6c0-.3-.3-.5-.5-.6h0Z"/>
      <path class="st5" d="M27.1,29.8c-.2,0-.4,0-.6.1h-.3s-.2,0-.2-.2,0-.4.2-.5c.1,0,.3-.1.4-.2h.1c.2,0,.4-.1.6-.1h.1c.3,0,.5,0,.8-.1h.6v.5h-.2c-.3.1-.5.1-.8.2h0v.2c0,.3.1.6.2.9,0,.4.2.7.2,1.1v.8c0,0-.1.2-.2.3h-.3s-.1-.2-.2-.3c0-.4-.2-.9-.3-1.3-.1-.5-.2-1-.4-1.4h.3Z"/>
      <path class="st5" d="M24.9,30.6c0,.1,0,.2.1.3,0,.2.2.4.3.6.2.5.4.9.6,1.4,0,0,.1.2.1.4s0,.3-.1.4h-.4s-.2,0-.2-.2c-.2-.4-.4-.8-.6-1.1-.1-.2-.2-.5-.4-.7,0-.2-.2-.4-.3-.5h0c-.1,0-.2.1-.4.2h-.3c-.2,0-.4,0-.5-.3,0-.2,0-.3.2-.4.1,0,.3-.2.4-.2,0,0,.2-.1.3-.2.2-.1.5-.2.7-.3.2,0,.3-.1.5-.2h.3c.2,0,.3.2.3.4s-.1.3-.3.4h-.1c-.1,0-.3.1-.5.2l.3-.2Z"/>
      <path class="st5" d="M40.8,32.8h.3c.2,0,.2.2.2.4,0,0,0,.2,0,.2l-.5.5-.3.3-1.2,1.2-.3.3c0,0-.3.2-.5,0,0,0-.2-.2-.2-.3s0-.2.2-.3l.5-.5.4-.4c.3-.3.5-.6.8-.8l.4-.4s.2-.2.2-.3h.2-.1Z"/>
    </g>
  </g>
  <g id="hands">
    <g id="right">
      <g>
        <path class="st5" d="M45.8,46.7h-2.4c-.2,0-.5,0-.7-.2-.2,0-.4-.2-.6-.3,0,0-.2-.2-.4-.3,0,0,0-.2,0-.3v-.2h0c0,0,0,0-.2,0s-.3-.2-.3-.3c0,0,0-.2,0-.3v-.5h0c0,0-.2,0-.3-.3,0,0,0-.2-.2-.2,0-.2-.2-.4-.2-.6v-.7c0,0,.2-.3.2-.4s.2-.2.3-.3h0v-.6c0,0,0-.3.2-.4,0-.2.3-.3.5-.4.2,0,.3-.2.5-.3.2,0,.4-.2.6-.3h.2c0,0,.2,0,.3,0,0,0,.2,0,.3,0h.3c0,0,.3,0,.4,0h2.8c.2,0,.3,0,.5.2h0c.2,0,.4.2.6.3,0,0,.2,0,.2.2l.2.2c0,0,0,.3.2.4v1s0,.2,0,.3v1c0,.2,0,.3,0,.5v.5h0v.5h0c0,.3,0,.5-.2.7,0,0,0,.3,0,.5v.2h0v1.1c0,0,0,.3-.2.4h0c0,.2-.2.4-.4.5,0,0-.2,0-.3.2-.2,0-.4.2-.7.3,0,0-.2,0-.3.2h0c0,0,0,.3-.2.4h0c0-.2,0-.3,0-.5,0,0,0-.3,0-.4,0-.2,0-.3,0-.5v-.2h0c0,0-.2,0-.3,0h-.3v-.6Z"/>
        <path class="st2" d="M41.1,42.1c0-.2,0-.3.2-.4,0,0,.2-.2.3-.2,0,0,.2,0,.2,0,0,0,.3,0,.4,0h3.7c.3,0,.5,0,.8,0h.9c0,0,0-.2,0-.3,0,0-.2-.2-.4-.2h-5.3c0,0-.2,0-.2-.2s0-.3.2-.5c0,0,.2-.2.3-.2s.3-.2.4-.3c0,0,.2,0,.3-.2h0c.2,0,.4,0,.6-.2h2.7c0,0,.3,0,.4,0,0,0,.2,0,.4,0,.2,0,.3,0,.5,0,0,0,.2,0,.3,0h0s.2,0,.2.2c0,0,.2.3.2.5v1.2c0,.2,0,.3,0,.5v.2h0v.6c0,.2,0,.4,0,.7v.7c0,0,0,.3-.2.4,0,0,0,.2,0,.4v.9h0c0,.2-.2.4-.3.5l-.3.3c0,0-.3.2-.4.2h0v-.3h.3s0,0,0-.2h-3.9c0,0-.3,0-.4-.2,0,0-.3-.2-.3-.3v-.2s0-.2.2-.2h4.1s.2,0,.2,0h0l-.2-.2c0,0-.3,0-.4,0h-4.5c-.2,0-.3,0-.4-.3v-.5c0,0,0-.2.2-.3h5.4s.3,0,.4,0h0c0,0-.3-.2-.4-.2h-5.6c0,0-.3,0-.4-.2,0,0-.2-.2-.2-.3v-1.2Z"/>
      </g>
    </g>
    <g id="left">
      <g>
        <path class="st5" d="M19.4,44.8v.6c0,0-.1.2-.2.3,0,0-.1,0-.2.2,0,0-.2,0-.3,0-.1,0-.3,0-.4.2-.2,0-.3,0-.5,0-.2,0-.4,0-.5,0-.2,0-.4,0-.6,0h-2s-.1,0,0,0v.5h0c0,.2.1.5.2.7v.3h0c0,0-.1-.3-.2-.4h-.2c-.2,0-.4-.2-.6-.3-.2,0-.3-.2-.4-.3-.1,0-.2-.2-.3-.3,0,0-.1,0-.2-.2h0c-.2-.3-.2-.5-.3-.7v-1.2c0,0,0-.3-.1-.4,0,0,0-.2-.1-.4v-2.6c0-.3.2-.5.3-.7v-.9c0-.2,0-.3.1-.5,0,0,0,0,.1-.2h.1c0,0,.1-.2.2-.3,0,0,.2,0,.3-.2.2,0,.4-.2.6-.3.2,0,.4,0,.5-.2h.3c.2,0,.5,0,.7-.2h2.1c.2,0,.3,0,.5.2.2,0,.5.2.7.3.2,0,.3,0,.5.2.2,0,.4.2.5.3,0,0,.1,0,.2,0l.3.3c.1.2.2.4.2.6v.3h0c0,0,.2.2.3.3.1,0,.2.2.3.4v.6c0,.2,0,.3-.1.5,0,0-.1.3-.2.4,0,0-.2.2-.4.3h0v.7c0,.2-.2.3-.3.4,0,0-.2,0-.3.2h0l-.6.9Z"/>
        <path class="st2" d="M14.8,46.5h-.2c-.3,0-.5-.3-.7-.5-.1,0-.2-.2-.3-.4h0v-.8c0-.2,0-.4-.1-.5,0-.2-.2-.3-.2-.5v-1c0-.2-.1-.4-.2-.5v-.7h0v-1.5c0,0,0-.2.2-.4,0,0,.1-.2.3-.3h0s.2,0,.3,0h.2c.2,0,.4,0,.6-.2h2.8c.1,0,.3,0,.4,0h.5c.2,0,.3,0,.4.2,0,0,.2,0,.3,0,.1,0,.2,0,.3.2,0,0,.2,0,.2.2.2,0,.3.3.3.5,0,0-.1.2-.2.2h0c-.2,0-.3,0-.5,0h-4c-.2,0-.4,0-.7,0-.1,0-.3,0-.4,0,0,0-.1,0-.2,0v.2h6c.1,0,.3,0,.4.2s.1,0,.1,0c0,0,.1.2.2.3v.6s-.1.2-.2.2c-.1,0-.3.2-.5,0h-5.3c-.1,0-.3,0-.4,0h-.1v.2h2.8s0-.2.1-.2c0,0,.2.2.3.2h1.6c.2,0,.4,0,.6,0,.1,0,.2,0,.3.3v.4c0,.2-.2.3-.4.4h-4.7s-.2,0-.2.2c0,0,0,.2.1.2h4.3c.1,0,.2,0,.2.2,0,.2-.2.4-.4.5-.2,0-.5.2-.7.3-.3,0-.5,0-.8.2-.2,0-.3,0-.5,0-.2,0-.4,0-.6,0h-1.9c0,0,0,.2.1.3h.3v.3h.2Z"/>
      </g>
    </g>
  </g>
</svg>