<?xml version="1.0" encoding="UTF-8"?>
<svg xmlns="http://www.w3.org/2000/svg" version="1.1" viewBox="0 0 60 60">
  <defs>
    <style>
      .cls-1 {
        fill: #939598;
      }

      .cls-1, .cls-2, .cls-3, .cls-4, .cls-5, .cls-6 {
        stroke-width: 0px;
      }

      .cls-2, .cls-4 {
        fill: #1d477f;
      }

      .cls-3 {
        fill: #d8d6d6;
      }

      .cls-3, .cls-4, .cls-5 {
        fill-rule: evenodd;
      }

      .cls-7 {
        stroke: #1d477f;
        stroke-miterlimit: 10;
        stroke-width: .7px;
      }

      .cls-7, .cls-5, .cls-6 {
        fill: #fff;
      }
    </style>
  </defs>
  <g id="vector_face" data-name="vector face">
    <path class="cls-3" d="M43,33.9c0-.3.3-.5.2-.8,0-.1-.2-.2-.3-.2-.2,0,0,.2-.2.5,0,.3-.5.5-.6.6"/>
    <path class="cls-4" d="M17.3,34.3c-.4-.6-.4-1.5-.6-2.2-.6-.1-1.1.5-1.5,0,0-.1-.4-.7-.4-.9,0-.1,0-.3,0-.5-.2,0-.2.3-.5.3-.5,0-.6-1-.6-1.6-.3,0-.5,0-.7,0-.4.2-.4.7-.6,1,0,.2-.3.4-.5.5-.7,0-1-1.4-1-2.1,0-.7-.1-1.5.2-2,0-.2,0-.4,0-.5-.2,0-.3.1-.4.1-.3,0-.2-.5-.2-.9,0-.3.2-.7.3-1,.1-.3.4-.7.5-.9,0-.4-.1-.9-.2-1.1-.7,0-.6-.5-.6-1,0,0-.1,0-.2-.1-.2.1-.2.4-.4.5-.2.1-.4.2-.7.3-.9-.7-.4-2.2.2-3-.2-.3-.5-.2-.5-.7,0-.3.1-.7.3-1,.1-.3.3-.6.4-.8.3-.5.8-.7.8-1.5,0,0-.2,0-.3,0-.2,0,0-.2-.2-.2-.3-.1-.3.2-.5.2-.2,0-.3-.3-.3-.6,0-.4.4-1,.7-1.3.6-.6,1.5-1,1.9-1.5,0-.3.4-.8,0-1.1.2-.4.6-.5.7-.9,0-.2-.1-.3-.3-.4-.3,0-.6.4-.9.4-.2,0-.4-.2-.5-.4,0-.2.3-.8.5-.9.2-.2.6-.5.8-.7.3-.2.9-.1,1.1-.4.5-.5.8-1.2,1.2-1.7.3-.4.8-.6,1.2-.7.5-.1,1.1-.2,1.4-.5.2-.1.2-.4.3-.6.3-.5.7-.9,1.4-.9.5-.3,1.3-.4,1.9-.4.2,0,.4,0,.5,0,.2,0,.5-.3.7-.5.2-.1.3-.3.4-.4.4-.2,1-.2,1.4-.3.4-.2.7-.6,1.1-.9,0,0,.2,0,.2-.1.6-.2,1-.2,1.7-.3.3.2.5.2.9.3.2,0,.4.2.8,0,.8-.2,1.7-.9,2.7-.7.3,0,.5.3.7.5,1,.2,2-.3,2.9,0,.4,0,.7.2,1,.2.5.5.7,1.2,1.8,1.1.3.1.6.4.9.5.3,0,.7,0,1.1,0,.5,0,.9.3,1.3.5.2.1.4.2.5.3.1.1.1.3.3.5.2.3.8.6,1.3.7.1,0,.3,0,.4,0,.4,0,.9.3,1.3.5.8.4,1.3,1,1.6,1.8-.1.7.5.6.8.9.3.4.2,1,.6,1.1.2,0,.4,0,.7.1.5.1,1.4.7,1.7,1,.2.2.6,1.3.2,1.5-.3.1-.6-.3-.9-.3-.2,0-.5.2-.4.5,0,.1.2.1.3.2.2.2.2.5.4.9.1.3.3.6.3,1,0,.3-.2.7,0,1,0,.1.4.1.5.2.2.2.4.6.5,1,.2.6.4.9.5,1.6,0,.2.1.5,0,.6,0,.4-.6.7-1,.4-.2-.1-.3-.7-.7-.3,0,.6.6,1.2.5,1.9-.3.1-.5.5-.8.7-.3.2-.8.3-1,.7.2.2.3.4.5.6.1,0,.3,0,.4.1.2.2.3.5.3.8-.2.3-.7.8-.5,1.3,0,.2.4.2.6.3.5.4.8,1.9.9,2.8,0,.4,0,1-.2,1.5,0,.2-.2.6-.4.6-.7.2-.4-1.2-.7-1.7-.2-.4-.9-.3-1.1.1,0,.7.4,2.1-.5,2.2,0,0,0,.2-.1.3-.6.2-.9.7-1.6.8-.3.3-.2,1.2-.6,1.5-.2.2-.7.5-.9.7-.3.2-.4.4-.8.7"/>
    <path class="cls-5" d="M36,17.4c-.2-.2-.5-.4-.8-.5-.2,0-.4.1-.5.1-.7.1-1.1-.2-1.5-.5-.2-.2-.5-.5-.8-.5,0,0,0,0,0,0,0,.3.5.6.2,1-.1.2-.5.2-.8.1-.1.2-.1.4-.2.6,0,.1-.2.2-.2.3,0,.1,0,.4.1.5.1.1.4.2.6.3.2.1.5.2.6.4.5.7-.7,1-1.2.6-.2.2-.5.2-.8.2-.2,0-.3,0-.4,0-.2,0-.6-.2-.7-.4-.3-.3-.3-.8-.6-1.1-.6-.2-1.2,0-1.6-.2-.7-.2-1-1-1.2-1.7-.6.2-1.2.5-1,1.4-.2.5-.7.6-1.2.7-.4.3-.2.9-.6,1.2-.3.2-.6.2-.8.5-.3.5,0,.9.2,1.6,2-.4,4.6-.3,6.6,0,.3.2.6.4.7.8.5-.2,1.3-.3,1.8,0,0-.1,0-.2,0-.3.4-.5,1.2-.6,2.1-.6,1.4-.1,3-.2,4.1,0-.3-.4,0-1.3-.2-1.9-.3-.2-.6-.2-.7-.5-.2-.4,0-1.1-.1-1.5-.5,0-.6-.5-.9-.8Z"/>
    <path class="cls-5" d="M38.5,22.9c-.2-.1-.6,0-1-.1-.3,0-.6-.1-.9-.1-1.6,0-3.3,0-4.3.5,0,.1,0,.2,0,.3,0,.2-.1.2-.1.3,0,.5.3,1,.7,1.2.2.2.7.3,1.1.4,1.2.2,2.8,0,3.8,0,.2-.1.5-.2.7-.3.2-.6.4-1.7,0-2.1Z"/>
    <path class="cls-5" d="M23.5,25.6c1.3.2,3.2.3,4.3,0,.8-.3,1.3-.8,1.4-1.8,0-.8-.4-.8-1.1-.9-1.3-.2-2.7,0-4-.1-.6,0-1.8.2-2,.5-.1.2-.2.5-.2.8,0,.4.2.9.4,1.3.3.1.7.3,1.1.4Z"/>
    <path class="cls-5" d="M35.8,34.9c.7-.8,1.1-1.7,1.6-2.8.2-.6.5-1.2.7-1.8.1-.7.1-1.4.2-2.2,0-.7,0-1.4,0-2.1-2.6.2-6.5.7-6.5-2.5-.6-.2-1.3,0-1.8.1.2,1-.4,1.6-.8,2.3-1,.6-2.4.7-3.7.7-.9,0-1.8-.2-2.6-.4,0,.6,0,1.2,0,1.8,0,.8.3,1.5.4,2.1,0,.2,0,.4,0,.6,0,.7.3,1.1.6,1.7.3.7.7,1.3,1.2,1.9"/>
    <path class="cls-4" d="M37,21.6c-.4.3-.8,0-1.4-.1-.7,0-1.5,0-2.1.2-.3,0-.6,0-.8.1,0,0-.2.1-.3.1-.3,0-.5-.3-.5-.5,0-.4.3-.6.5-.8.9-.5,2.5-.8,3.6-.2.1,0,.2.2.4.3.3.2.8.5.7.9Z"/>
    <path class="cls-4" d="M28.6,22c-.2,0-.1,0-.3,0-1.2,0-2.4-.4-3.5-.5-.6,0-1,.5-1.6.3,0-.6.4-1,.9-1.3.5-.3,1.4-.4,2.3-.3.6,0,1.5.2,1.7.4,0,0,.1.2.2.3,0,0,.2.2.2.2.1.2.2.6,0,.9Z"/>
  </g>
  <g id="circle_vector" data-name="circle vector">
    <path class="cls-7" d="M46.7,43.6c0,8.9-7.2,16.2-16.2,16.2s-16.2-7.2-16.2-16.2,7.2-16.2,16.2-16.2,16.2,7.2,16.2,16.2Z"/>
    <circle class="cls-7" cx="30.5" cy="43.6" r="9.7"/>
    <g>
      <path class="cls-1" d="M43.1,56.6v-.2s0,0,0,0h-.9s0,0,0,0v.2s0,0,0,0h.3v1.3s0,0,0,0h.2s0,0,0,0v-1.3h.3s0,0,0,0Z"/>
      <path class="cls-1" d="M44.6,56.3s0,0,0,0c0,0,0,0,0,0l-.5,1.1-.5-1.1s0,0,0,0c0,0,0,0,0,0l-.3,1.6s0,0,0,0c0,0,0,0,0,0h.2s0,0,0,0l.2-.8.4.9s0,0,0,0,0,0,0,0l.4-.9.2.8s0,0,0,0h.2s0,0,0,0c0,0,0,0,0,0l-.3-1.6Z"/>
    </g>
    <g>
      <path class="cls-2" d="M26.3,45.2c.6.7,1.2,1.4,1.7,2.2.9,1.4-1.3,2.9-2.3,1.5,0,0-.3-.4-.7-1-.1-.2-.3-.4-.5-.6-.3.8-.5,1.5-.6,2.1-.2.8-1,1.1-1.6.9-.6-.2-1.2-.7-1-1.6.7-2.6,2.4-7,3.3-9.4,0-.1-.1-.2-.1-.4-.2-.6.1-1.4,1-1.6,1.3-.3,3.1-.6,4.3-.2,1.6.5,2.3,2,1.3,3.7-.8,1.4-2.4,2.8-4.7,4.4ZM27.3,39.6c-.2.6-.6,1.5-.9,2.4,1-.8,2-1.6,2.4-2.4,0,0,0,0,0,0-.3-.1-.9,0-1.5,0Z"/>
      <path class="cls-2" d="M34.4,44.8c.5.6,1.5,2,1.9,2.9.4.8,0,1.5-.7,1.7-.6.3-1.4.2-1.8-.6-.4-.7-1-1.6-1.6-2.3-.3,1-.6,1.9-.7,2.6-.1.7-1,1-1.6,1-.7,0-1.3-.7-1-1.8.7-2.6,2.5-7.4,3.3-9.9.3-.8,1.1-1,1.7-.8.6.2,1.2.8.9,1.6-.2.6-.6,1.5-.9,2.5,1.4-1.3,3-2.9,3.5-3.7.5-.7,1.3-.7,1.8-.4.5.3.9,1.1.4,1.8-.7,1-3.7,4-5.4,5.4Z"/>
    </g>
    <path class="cls-4" d="M18.7,48.4c.5,0,.5.4.8.4.3,0,.6-.1.8,0,0,.2,0,.4-.1.7,0,.3.7.8.3,1-.3,0-.5,0-.8,0-.3.2-.2.6-.7.7,0,0,0,0,0,0,0-.2-.1-.5-.2-.7-.2,0-.6-.3-.8-.5h0c.2-.2.3-.4.5-.5.1-.3,0-.8.2-1.1Z"/>
    <path class="cls-4" d="M41.2,48.3c.4,0,.5.2.7.3.4.1.7-.3,1-.2,0,0,0,0,.1,0,0,.3,0,.7,0,1,0,.3.3.2.3.6,0,0-.1.1-.2.2-1.1,0-.6.6-1.3.9h-.2c-.2-.2-.3-.6-.5-.8-.3,0-.7-.1-.9-.3v-.2c.2-.3.6-.4.7-.7.1-.3,0-.6,0-.9,0,0,0,0,0,0Z"/>
  </g>
  <g id="letters_Image" data-name="letters Image">
    <path class="cls-6" d="M20.7,32.9c0,0,0,.2,0,.3,0,.2,0,.5.2.7,0,0,0,.1,0,.2.1.2.2.3.3.5,0,.1.2.2.3.4.2.2.4.3.7.4.1,0,.3,0,.4.1.1,0,.2,0,.4,0,0,0,.1,0,.2,0,0,0,0,0,0,0,.2,0,.3-.2.5-.3.2-.1.3-.3.4-.5.1-.3.1-.6,0-.8,0-.2-.1-.4-.2-.6,0-.2-.1-.3-.2-.5,0,0,0,0,0-.1-.2-.3-.4-.6-.8-.8-.3-.2-.6-.3-1-.2,0,0-.2,0-.2,0-.4,0-.7.2-1,.5-.2.2-.3.5-.3.8ZM33.2,30.9c0,0,0,.1,0,.2.2.6.3,1.1.5,1.7,0,.2.1.3.2.4.1.1.3.1.4,0,.1-.1.2-.3.2-.4,0-.1.1-.3.2-.4.1-.4.3-.7.4-1.1.1-.3.2-.7.3-1,0-.2.1-.3.2-.5,0,0,0,0,0-.1,0-.2-.2-.3-.4-.4-.2,0-.3,0-.3.2,0,0,0,.2,0,.3-.2.6-.4,1.2-.6,1.8,0,0,0,0,0,.1,0,0,0,0,0,0,0-.2,0-.3-.1-.5,0-.4-.2-.7-.3-1.1,0-.3-.2-.6-.3-1,0-.3-.3-.4-.6-.2,0,0-.1,0-.2.2,0,.1,0,.2,0,.4,0,.3,0,.5-.1.8,0,.3,0,.6-.1.8,0,.3,0,.6-.1.9,0,.2,0,.3-.1.5,0,.1,0,.2,0,.3,0,.2.3.2.4,0,.1-.1.1-.3.2-.4,0-.1,0-.3,0-.4,0-.3.1-.5.2-.8,0,0,0-.2,0-.3ZM28.3,56.9c.2-.1.4-.2.5-.3,0,0,0,0,0,0,.2-.2.3-.4.4-.7,0-.2,0-.4,0-.5,0,0,0,0,0-.1,0,0,0,0,0,0,0,0-.1-.2-.2-.2-.1-.1-.2-.2-.4-.3-.4-.2-.8-.3-1.2-.3-.2,0-.3,0-.4.2,0,0,0,.2,0,.3-.1.4-.2.8-.4,1.2-.1.5-.3,1-.4,1.5,0,0,0,0,0,.1,0,.1,0,.2,0,.3,0,.2.4.4.6.2,0,0,0,0,0-.1,0-.3.2-.6.2-.8,0,0,0,0,0,0,0,0,.2,0,.3,0,0,0,0,0,0,0,.1.2.2.4.3.6,0,.2.2.4.3.6.1.2.2.3.5.2.1,0,.3-.1.3-.3,0-.1,0-.3-.1-.4,0,0,0-.2-.1-.3-.1-.2-.2-.4-.3-.6,0,0,0,0,0-.1ZM20.8,35.8c0-.2,0-.3,0-.5,0-.2,0-.3-.1-.5,0-.1-.1-.2-.2-.3-.1-.1-.3-.2-.4-.3-.2-.1-.4-.1-.6-.1-.1,0-.2,0-.3,0,0,0,0,0-.1,0-.1,0-.3.1-.4.2-.3.3-.6.6-.7,1.1,0,.2,0,.3.1.4,0,0,.2.1.3.2.2.1.4.3.7.4.5.3,1,.6,1.5.9,0,0,.2.1.3.2.1,0,.2.1.3.1.1,0,.3,0,.4-.2,0-.2,0-.3-.1-.4-.2-.1-.4-.2-.6-.4-.2-.1-.2,0-.1-.3,0,0,0,0,.1,0,.1,0,.3,0,.4,0,.1,0,.2,0,.3,0,.1,0,.3,0,.4,0,0,0,.1,0,.2,0,.1,0,.3,0,.3-.2,0-.1,0-.2,0-.3,0,0-.2-.1-.3-.1,0,0-.1,0-.2,0-.2,0-.5,0-.7,0,0,0-.2,0-.3,0ZM30.2,29.4c0,0,.1,0,.2,0,.3,0,.6,0,.9,0,0,0,0,0,0,0,.2,0,.5,0,.7,0,0,0,0,0,.1,0,.1-.1.1-.3,0-.5,0,0,0-.1-.1-.1-.1,0-.2,0-.4,0-.3,0-.6,0-.9,0,0,0-.2,0-.2,0-.3,0-.5,0-.8,0,0,0-.2,0-.2.1,0,0,0,0,0,0,0,0,0,0-.1.1,0,.1,0,.3,0,.5,0,0,0,.2,0,.3,0,.2,0,.4,0,.5,0,.3,0,.5,0,.8,0,.2,0,.4,0,.6,0,.2,0,.4,0,.7,0,.2,0,.3.2.4.1,0,.2.1.4.1.3,0,.6,0,.9,0,0,0,0,0,0,0,.1,0,.2,0,.3,0,.1,0,.3,0,.4-.1,0,0,0,0,0,0,.1,0,0-.4-.1-.5-.1,0-.2,0-.3,0,0,0-.2,0-.3,0,0,0-.1,0-.2,0-.2,0-.4,0-.6,0,0,0,0,0,0,0,0,0,0,0,0,0,0-.2,0-.4,0-.6,0-.1,0-.2,0-.3,0,0,0-.1.1-.1,0,0,0,0,0,0,.2,0,.4,0,.6,0,.2,0,.3,0,.5,0,0,0,.2,0,.3,0,.1,0,.2-.1.3-.2,0-.1,0-.2,0-.3,0-.1-.2-.2-.4-.2-.3,0-.7-.1-1,0-.1,0-.2,0-.3,0,0-.3,0-.6,0-.9ZM33.6,54.3c-.2,0-.4,0-.6,0-.4.2-.6.5-.7.9,0,0,0,.2,0,.3,0,.1,0,.3.1.4,0,0,0,0,0,0,0,0,.1.2.2.2,0,0,0,0,0,0,.2.1.5.2.8.3.3,0,.6.1.8.2.1,0,.2.1.2.2,0,0,0,.2,0,.2,0,0,0,0,0,0-.1,0-.3.1-.5,0-.1,0-.2,0-.4-.1,0,0-.2,0-.2-.1-.1,0-.2-.1-.3-.1-.2,0-.5.2-.4.5,0,.1.1.2.2.3.2.2.3.3.5.3.2,0,.3.1.5.1,0,0,.2,0,.3,0,.3,0,.6-.1.8-.4,0,0,0,0,0,0,.1,0,.2-.2.3-.3,0-.1.1-.3.1-.4,0,0,0-.1,0-.2,0,0,0,0,0,0,0-.4-.3-.6-.6-.8,0,0-.2,0-.3-.1,0,0-.1,0-.2,0,0,0-.1,0-.2,0-.1,0-.2,0-.4,0-.2,0-.3,0-.5-.1-.2,0-.2-.1-.2-.3,0-.1,0-.2,0-.3,0,0,.1-.1.2-.1,0,0,.1,0,.2,0,.1,0,.2,0,.3.1,0,0,0,0,.1.1,0,0,.2.1.3,0,.1,0,.2-.2.2-.3,0-.1,0-.2,0-.3,0,0-.1-.2-.2-.2,0,0,0,0,0,0-.2-.1-.4-.2-.6-.1ZM38.3,55.7c0,0,0-.2,0-.4,0-.2-.2-.3-.3-.4-.3-.2-.7-.3-1.1-.2-.2,0-.5,0-.7,0-.1,0-.2,0-.3-.2,0-.1,0-.3,0-.4,0,0,0-.2,0-.2,0,0,.1,0,.2-.1.2,0,.4,0,.5.1.1,0,.2.1.3.2,0,0,0,0,.1,0,0,0,.1,0,.2-.1,0,0,0,0,0-.1,0,0,0-.2,0-.2,0-.2-.2-.3-.4-.4-.2-.1-.4-.2-.6-.2-.2,0-.3,0-.4,0-.2,0-.4.2-.5.3-.2.2-.3.3-.3.6,0,0,0,.1,0,.2,0,.2,0,.4.1.6,0,.2.2.4.5.5,0,0,.1,0,.1,0,.1,0,.2,0,.4,0,.1,0,.2,0,.3,0,.2,0,.3,0,.5,0,.1,0,.2,0,.3,0,.1,0,.2,0,.2.1.1.2.2.3,0,.5,0,.1-.2.2-.3.2,0,0-.1,0-.2,0-.1,0-.2,0-.3,0-.1,0-.3-.2-.4-.3-.1-.1-.4-.1-.5,0,0,0,0,.1,0,.2,0,.2.1.3.3.5.1.1.3.2.4.3.1,0,.2.1.4.1,0,0,0,0,0,0,.2,0,.3,0,.5,0,0,0,0,0,0,0,.3-.1.5-.3.7-.6.1-.2.2-.5.2-.8ZM43.1,35.7s0,0,0-.1c0,0,0,0,0,0-.2-.5-.4-.9-.8-1.2-.2-.1-.4-.2-.7,0-.1,0-.2.1-.3.2-.2.1-.3.3-.5.4-.2.2-.5.4-.7.6-.2.2-.5.4-.7.6,0,0-.2.2-.3.2,0,0-.1.1-.1.2,0,0,0,.1,0,.2,0,0,0,0,0,0,0,0,0,.1,0,.2,0,0,.1.2.2.2.1.1.2.2.3.3.2.1.4.3.6.4.3.1.6.2.9,0,.2,0,.4-.2.6-.3.2-.1.4-.2.5-.4.2-.1.3-.3.4-.4.1-.1.2-.3.3-.4,0-.2.2-.4.1-.7ZM30.5,55.3s0,0,.1,0c.2,0,.4,0,.6,0,.1,0,.2,0,.3,0,0,0,.2,0,.3,0,.2,0,.2-.1.3-.3,0-.2-.1-.4-.3-.3,0,0-.2,0-.2,0-.2,0-.4,0-.5,0-.1,0-.3,0-.4,0-.2,0-.3,0-.5,0,0,0,0,0,0,0,0,0,0,.1-.1.2,0,0,0,.1,0,.2,0,.2,0,.3,0,.5,0,.3,0,.6,0,.9,0,.1,0,.2,0,.3,0,.3,0,.7,0,1,0,.1,0,.2,0,.3,0,.2,0,.3.2.4,0,0,.1,0,.2,0,.3,0,.5,0,.8,0,.2,0,.3,0,.5,0,0,0,0,0,0,0,.2,0,.3,0,.5,0,0,0,0,0,0,0,.1,0,.2-.2.2-.3,0-.2,0-.3-.2-.4-.2,0-.5,0-.7,0,0,0,0,0-.1,0,0,0-.1,0-.2,0,0,0-.1,0-.2,0-.1,0-.2,0-.3,0-.1,0-.1,0-.1-.1,0-.2,0-.4,0-.6,0,0,0,0,0-.1,0,0,0,0,.1,0,0,0,.2,0,.3,0,.2,0,.4,0,.6,0,0,0,0,0,.1,0,.1,0,.3,0,.4-.1.1,0,.2-.1.2-.2,0-.1,0-.2,0-.3,0,0-.2,0-.3,0-.2,0-.4,0-.6,0-.2,0-.4,0-.6,0-.1,0-.1,0-.1-.1,0-.2,0-.4,0-.5,0-.1,0-.2,0-.3ZM37.8,32.2s0,0,0,0c.1-.2.2-.4.3-.6,0-.1.2-.3.2-.4,0-.1,0-.3,0-.4-.1-.2-.3-.2-.4-.2-.2,0-.3.1-.3.3,0,0,0,0,0,.1,0,.1-.1.3-.2.4-.2.3-.3.6-.5.9-.2.3-.4.7-.6,1,0,.1-.2.3-.2.4,0,.1,0,.3,0,.4,0,0,0,0,.1,0,.1,0,.3,0,.4-.1,0,0,.1,0,.2-.1,0,0,0,0,0,0,0,0,0,0,0,0,0-.1.2-.3.3-.4,0,0,0,0,0,0,0,.2,0,.4,0,.6,0,.3,0,.6,0,.9,0,0,0,.2,0,.2,0,.2.3.2.4,0,0,0,.1-.2.1-.3,0-.4,0-.8,0-1.3,0,0,0-.1,0-.2,0-.1,0-.3,0-.4,0,0,0,0,0,0,.2,0,.4,0,.6,0,.4,0,.7,0,1.1-.1.1,0,.3,0,.4-.1.1,0,.2-.2.2-.4,0-.2-.2-.3-.4-.3,0,0,0,0,0,0-.2,0-.3,0-.5,0-.2,0-.5,0-.7.1-.2,0-.4,0-.6,0,0,0,0,0,0,0ZM24.1,56.1c0,0,.1,0,.2,0,.3,0,.5.1.8.1.1,0,.2,0,.3,0,0,0,.2,0,.3-.1.1,0,.3-.1.4-.2,0-.1.2-.2.2-.3,0,0,.1-.2.1-.3,0,0,0-.1,0-.2,0-.2,0-.3,0-.5-.1-.3-.3-.6-.6-.9,0,0-.1,0-.2-.1-.1,0-.2-.1-.3-.2-.2-.1-.5,0-.6.2,0,0,0,.1-.1.2-.1.2-.3.5-.4.7-.1.3-.3.5-.5.8-.2.3-.3.5-.5.8,0,.1-.1.3-.2.4,0,.2,0,.4.2.5.2.1.4,0,.4-.2,0,0,0,0,0,0,0-.2.2-.3.3-.5,0,0,0,0,0-.1ZM27.1,29.8s0,0,0,0c.1.5.2.9.4,1.4.1.4.2.9.3,1.3,0,.1,0,.2.2.3,0,0,.2,0,.3,0,.1,0,.2-.1.2-.3,0-.1,0-.3,0-.4,0-.1,0-.3,0-.4,0-.4-.2-.7-.2-1.1,0-.3-.1-.6-.2-.9,0,0,0-.2,0-.2,0,0,0,0,0,0,.3,0,.5-.1.8-.1,0,0,.1,0,.2-.1.1-.1,0-.3,0-.4,0,0,0,0-.1-.1,0,0-.2-.1-.3,0,0,0,0,0,0,0,0,0-.1,0-.2,0-.3,0-.5,0-.8.1,0,0,0,0-.1,0-.2,0-.4,0-.6.1,0,0,0,0-.1,0-.1,0-.3.1-.4.2-.2.1-.2.3-.2.5,0,.1.1.2.2.2,0,0,.2,0,.3,0,.2,0,.4,0,.6-.1ZM24.9,30.6c.2,0,.3-.1.5-.2,0,0,0,0,.1,0,.1,0,.3-.2.3-.4,0-.2-.1-.3-.3-.4-.1,0-.2,0-.3,0-.2,0-.3.1-.5.2-.3,0-.5.2-.7.3,0,0-.2.1-.3.2-.1,0-.3.1-.4.2-.1,0-.2.2-.2.4,0,.2.2.4.5.3,0,0,.2,0,.3,0,.1,0,.2-.1.4-.2,0,0,0,0,0,0,0,.2.2.4.3.5.1.2.2.5.4.7.2.4.4.8.6,1.1,0,.1.1.2.2.2,0,0,.3,0,.4,0,.1,0,.2-.2.1-.4,0-.1,0-.2-.1-.4-.2-.5-.4-.9-.6-1.4,0-.2-.2-.4-.3-.6,0,0,0-.2-.1-.3ZM40.8,32.8c0,0-.1,0-.2,0,0,0-.2.2-.2.3-.1.1-.3.3-.4.4-.3.3-.5.6-.8.8-.1.1-.3.3-.4.4-.2.2-.3.4-.5.5,0,0-.1.2-.2.3,0,.1,0,.3.2.3.2,0,.3,0,.5-.1.1-.1.2-.2.3-.3.4-.4.8-.8,1.2-1.2,0,0,.2-.2.3-.3.2-.2.3-.3.5-.5,0,0,.1-.1.1-.2,0-.2,0-.3-.2-.4,0,0-.2,0-.3,0Z"/>
    <g>
      <path class="cls-2" d="M20.7,32.9c0-.3,0-.5.3-.8.2-.3.6-.5,1-.5,0,0,.2,0,.2,0,.3,0,.7,0,1,.2.3.2.6.4.8.8,0,0,0,0,0,.1,0,.1.2.3.2.5,0,.2.1.4.2.6,0,.3,0,.6,0,.8,0,.2-.2.4-.4.5-.2,0-.3.2-.5.3,0,0,0,0,0,0,0,0-.1,0-.2,0-.1,0-.3,0-.4,0-.1,0-.3,0-.4-.1-.3,0-.5-.2-.7-.4-.1-.1-.2-.2-.3-.4-.1-.2-.2-.3-.3-.5,0,0,0-.1,0-.2-.1-.2-.1-.5-.2-.7,0,0,0-.2,0-.3ZM23,34.6c0,0,.2,0,.3-.1,0,0,0,0,.1,0,.1-.1.2-.3.2-.5,0-.4-.2-.8-.5-1.1-.2-.2-.3-.3-.6-.4-.2,0-.4,0-.6,0-.2,0-.3.2-.3.5,0,.2,0,.4.1.6,0,.2.2.4.3.5.2.2.4.4.6.5.1,0,.3,0,.5.1Z"/>
      <path class="cls-2" d="M33.2,30.9c0,.1,0,.2,0,.3,0,.3-.1.5-.2.8,0,.1,0,.3,0,.4,0,.1,0,.3-.2.4-.1.1-.3,0-.4,0,0,0,0-.2,0-.3,0-.2,0-.3.1-.5,0-.3,0-.6.1-.9,0-.3,0-.6.1-.8,0-.3,0-.5.1-.8,0-.1,0-.2,0-.4,0,0,0-.1.2-.2.2-.1.5,0,.6.2,0,.3.2.6.3,1,0,.4.2.7.3,1.1,0,.2,0,.3.1.5,0,0,0,0,0,0,0,0,0,0,0-.1.2-.6.4-1.2.6-1.8,0,0,0-.2,0-.3,0-.1.2-.2.3-.2.2,0,.4.1.4.4,0,0,0,0,0,.1,0,.2,0,.3-.2.5-.1.3-.2.7-.3,1-.1.4-.3.7-.4,1.1,0,.1,0,.3-.2.4,0,.1-.1.3-.2.4-.1.1-.3.1-.4,0-.1-.1-.2-.3-.2-.4-.2-.6-.3-1.1-.5-1.7,0,0,0-.1,0-.2Z"/>
      <path class="cls-2" d="M28.3,56.9s0,0,0,.1c.1.2.2.4.3.6,0,0,.1.2.1.3,0,.1.1.2.1.4,0,.2-.1.3-.3.3-.2,0-.4,0-.5-.2-.1-.2-.2-.4-.3-.6-.1-.2-.2-.4-.3-.6,0,0,0,0,0,0,0,0-.2,0-.3,0,0,0,0,0,0,0,0,.3-.2.5-.2.8,0,0,0,0,0,.1-.3.2-.5,0-.6-.2,0-.1,0-.2,0-.3,0,0,0,0,0-.1.1-.5.3-1,.4-1.5.1-.4.2-.8.4-1.2,0,0,0-.2,0-.3,0-.2.2-.2.4-.2.4,0,.8,0,1.2.3.1,0,.3.2.4.3,0,0,.1.1.2.2,0,0,0,0,0,0,0,0,0,0,0,.1,0,.2,0,.4,0,.5,0,.3-.2.5-.4.7,0,0,0,0,0,0-.2.1-.3.2-.5.3ZM27.7,55.1c0,.4-.2.9-.3,1.3,0,0,0,0,0,0,.2,0,.3,0,.5-.1.1,0,.2-.1.3-.2,0,0,.1-.1.2-.2,0,0,0-.1,0-.2,0-.2-.2-.3-.4-.4-.1,0-.2,0-.4,0Z"/>
      <path class="cls-2" d="M20.8,35.8c0,0,.2,0,.3,0,.2,0,.5,0,.7,0,0,0,.1,0,.2,0,.1,0,.2,0,.3.1.1,0,.1.2,0,.3,0,.1-.1.2-.3.2,0,0-.1,0-.2,0-.1,0-.3,0-.4,0-.1,0-.2,0-.3,0-.1,0-.3,0-.4,0,0,0,0,0-.1,0,0,.2,0,.2.1.3.2.1.4.2.6.4.2.1.2.3.1.4,0,.1-.2.2-.4.2-.1,0-.2,0-.3-.1,0,0-.2-.1-.3-.2-.5-.3-1-.6-1.5-.9-.2-.1-.4-.3-.7-.4,0,0-.2-.1-.3-.2-.2-.1-.2-.2-.1-.4.1-.4.4-.8.7-1.1.1,0,.2-.2.4-.2,0,0,0,0,.1,0,0,0,.2,0,.3,0,.2,0,.4,0,.6.1.2.1.3.2.4.3,0,0,.1.2.2.3,0,.1.1.3.1.5,0,.2,0,.3,0,.5ZM19.9,36.3c0,0,0-.1,0-.2,0-.2,0-.4,0-.6,0-.2-.2-.4-.4-.4-.2,0-.3,0-.5,0-.2.1-.3.3-.4.5.3.3.7.5,1.1.7Z"/>
      <path class="cls-2" d="M30.2,29.4c0,.3,0,.6,0,.9.1,0,.2,0,.3,0,.3,0,.7,0,1,0,.1,0,.3,0,.4.2,0,0,0,.2,0,.3,0,.1-.1.2-.3.2,0,0-.2,0-.3,0-.2,0-.3,0-.5,0-.2,0-.4,0-.6,0,0,0,0,0,0,0,0,0-.1,0-.1.1,0,.1,0,.2,0,.3,0,.2,0,.4,0,.6,0,0,0,0,0,0,0,0,0,0,0,0,.2,0,.4,0,.6,0,0,0,.1,0,.2,0,0,0,.2,0,.3,0,.1,0,.2,0,.3,0,.2,0,.2.4.1.5,0,0,0,0,0,0,0,.1-.2.1-.4.1-.1,0-.2,0-.3,0,0,0,0,0,0,0-.3,0-.6,0-.9,0-.1,0-.3,0-.4-.1-.1-.1-.2-.3-.2-.4,0-.2,0-.4,0-.7,0-.2,0-.4,0-.6,0-.3,0-.5,0-.8,0-.2,0-.4,0-.5,0,0,0-.2,0-.3,0-.2,0-.3,0-.5,0,0,0,0,.1-.1,0,0,0,0,0,0,0,0,.1,0,.2-.1.3,0,.5,0,.8,0,0,0,.2,0,.2,0,.3,0,.6,0,.9,0,.1,0,.2,0,.4,0,0,0,.1,0,.1.1,0,.2,0,.4,0,.5,0,0,0,0-.1,0-.2,0-.5,0-.7,0,0,0,0,0,0,0-.3,0-.6,0-.9,0,0,0-.1,0-.2,0Z"/>
      <path class="cls-2" d="M33.6,54.3c.2,0,.4,0,.6.1,0,0,0,0,0,0,.1,0,.2.1.2.2,0,0,0,.2,0,.3,0,.1,0,.2-.2.3-.1,0-.2,0-.3,0,0,0-.1,0-.1-.1,0,0-.2-.1-.3-.1,0,0-.1,0-.2,0,0,0-.1,0-.2.1,0,0,0,.2,0,.3,0,.2,0,.2.2.3.1,0,.3,0,.5.1.1,0,.2,0,.4,0,0,0,.1,0,.2,0,0,0,.1,0,.2,0,.1,0,.2,0,.3.1.3.2.5.4.6.8,0,0,0,0,0,0,0,0,0,.1,0,.2,0,.1,0,.3-.1.4,0,.1-.1.2-.3.3,0,0,0,0,0,0-.2.2-.5.3-.8.4,0,0-.2,0-.3,0-.2,0-.4,0-.5-.1-.2,0-.4-.2-.5-.3,0,0-.2-.2-.2-.3-.1-.3.2-.5.4-.5.1,0,.2,0,.3.1,0,0,.1.1.2.1.1,0,.2.1.4.1.2,0,.3,0,.5,0,0,0,0,0,0,0,0,0,0-.2,0-.2,0-.1-.1-.2-.2-.2-.3,0-.5-.2-.8-.2-.3,0-.5-.1-.8-.3,0,0,0,0,0,0,0,0-.1-.2-.2-.2,0,0,0,0,0,0,0-.1-.1-.3-.1-.4,0,0,0-.2,0-.3,0-.4.3-.7.7-.9.2,0,.4,0,.6,0Z"/>
      <path class="cls-2" d="M38.3,55.7c0,.3,0,.6-.2.8-.2.3-.4.5-.7.6,0,0,0,0,0,0-.1,0-.3,0-.5,0,0,0,0,0,0,0-.1,0-.3,0-.4-.1-.2,0-.3-.2-.4-.3-.1-.1-.2-.3-.3-.5,0,0,0-.1,0-.2.1-.2.4-.2.5,0,.1.1.3.2.4.3,0,0,.2,0,.3,0,0,0,.1,0,.2,0,.1,0,.2-.1.3-.2.1-.2,0-.4,0-.5,0,0-.1-.1-.2-.1-.1,0-.2,0-.3,0-.2,0-.3,0-.5,0-.1,0-.2,0-.3,0-.1,0-.2,0-.4,0,0,0,0,0-.1,0-.2,0-.4-.3-.5-.5,0-.2,0-.4-.1-.6,0,0,0-.1,0-.2,0-.2.2-.4.3-.6.1-.1.3-.2.5-.3.1,0,.3-.1.4,0,.2,0,.4,0,.6.2.2.1.3.3.4.4,0,0,0,.2,0,.2,0,0,0,0,0,.1,0,0-.1,0-.2.1,0,0,0,0-.1,0-.1,0-.2-.1-.3-.2-.1-.1-.3-.2-.5-.1,0,0-.2,0-.2.1,0,0,0,.1,0,.2,0,.1,0,.3,0,.4,0,.1.2.2.3.2.2,0,.5,0,.7,0,.4,0,.8,0,1.1.2.2.1.3.2.3.4,0,.1,0,.3,0,.4Z"/>
      <path class="cls-2" d="M43.1,35.7c0,.3,0,.5-.1.7-.1.1-.2.3-.3.4-.2.1-.3.3-.4.4-.2.1-.4.3-.5.4-.2.1-.4.2-.6.3-.3.1-.6,0-.9,0-.2,0-.4-.2-.6-.4-.1,0-.2-.2-.3-.3,0,0-.1-.1-.2-.2,0,0,0,0,0-.2,0,0,0,0,0,0,0,0,0,0,0-.2,0,0,0-.2.1-.2.1,0,.2-.2.3-.2.2-.2.5-.4.7-.6.2-.2.5-.4.7-.6.2-.1.3-.3.5-.4,0,0,.2-.2.3-.2.2-.1.5-.1.7,0,.4.3.6.7.8,1.2,0,0,0,0,0,0,0,0,0,.1,0,.1ZM42,35c0,0-.1,0-.2.1,0,0-.1.1-.2.2,0,0-.2.1-.3.2-.2.2-.4.3-.7.5-.3.2-.5.4-.8.6,0,0,0,0-.1.1,0,0,.1.2.2.2,0,0,.1.1.2.2.2,0,.4.2.6.1.2,0,.3,0,.5-.1.1,0,.2-.1.3-.2.1,0,.2-.1.3-.2.2-.1.3-.3.4-.6,0,0,0-.2,0-.2,0-.2,0-.5-.2-.7,0,0,0-.2-.2-.2Z"/>
      <path class="cls-2" d="M30.5,55.3c0,.1,0,.2,0,.3,0,.2,0,.4,0,.5,0,.1,0,.1.1.1.2,0,.4,0,.6,0,.2,0,.4,0,.6,0,0,0,.2,0,.3,0,.1,0,.1.2,0,.3,0,.1,0,.2-.2.2-.1,0-.3,0-.4.1,0,0,0,0-.1,0-.2,0-.4,0-.6,0,0,0-.2,0-.3,0,0,0,0,0-.1,0,0,0,0,.1,0,.1,0,.2,0,.4,0,.6,0,.1,0,.1.1.1.1,0,.2,0,.3,0s.1,0,.2,0c0,0,.1,0,.2,0,0,0,0,0,.1,0,.2,0,.4,0,.7,0,.1.1.2.2.2.4,0,.1-.1.3-.2.3,0,0,0,0,0,0-.2,0-.3,0-.5,0,0,0,0,0,0,0-.2,0-.3,0-.5,0-.3,0-.5,0-.8,0,0,0-.1,0-.2,0-.1,0-.2-.2-.2-.4,0-.1,0-.2,0-.3,0-.3,0-.7,0-1,0-.1,0-.2,0-.3,0-.3,0-.6,0-.9,0-.2,0-.3,0-.5,0,0,0-.1,0-.2,0,0,0-.1.1-.2,0,0,0,0,0,0,.2,0,.3,0,.5,0,.1,0,.3,0,.4,0,.2,0,.4,0,.5,0,0,0,.2,0,.2,0,.1,0,.3.2.3.3,0,.2-.1.3-.3.3,0,0-.2,0-.3,0-.1,0-.2,0-.3,0-.2,0-.4,0-.6,0,0,0,0,0-.1,0Z"/>
      <path class="cls-2" d="M37.8,32.2s0,0,0,0c.2,0,.4,0,.6,0,.2,0,.5,0,.7-.1.2,0,.3,0,.5,0,0,0,0,0,0,0,.1,0,.3.2.4.3,0,.1,0,.3-.2.4-.1,0-.2,0-.4.1-.4,0-.7,0-1.1.1-.2,0-.4,0-.6,0,0,0,0,0,0,0,0,.1,0,.3,0,.4,0,0,0,.1,0,.2,0,.4,0,.8,0,1.3,0,.1,0,.2-.1.3-.1.1-.3,0-.4,0,0,0,0-.2,0-.2,0-.3,0-.6,0-.9,0-.2,0-.4,0-.6,0,0,0,0,0,0,0,.1-.2.3-.3.4,0,0,0,0,0,0,0,0,0,0,0,0,0,0-.1,0-.2.1-.1,0-.2.1-.4.1,0,0-.1,0-.1,0,0-.1,0-.3,0-.4,0-.1.2-.3.2-.4.2-.3.4-.7.6-1,.2-.3.3-.6.5-.9,0-.1.2-.3.2-.4,0,0,0,0,0-.1,0-.1.2-.3.3-.3.2,0,.3,0,.4.2,0,.1,0,.2,0,.4,0,.2-.1.3-.2.4-.1.2-.2.4-.3.6,0,0,0,0,0,0Z"/>
      <path class="cls-2" d="M24.1,56.1s0,0,0,.1c0,.2-.2.3-.3.5,0,0,0,0,0,0,0,.2-.3.3-.4.2-.2-.1-.3-.3-.2-.5,0-.1.1-.3.2-.4.1-.3.3-.5.5-.8.2-.3.3-.5.5-.8.1-.2.3-.5.4-.7,0,0,0-.1.1-.2.1-.2.4-.3.6-.2.1,0,.2.1.3.2,0,0,.1,0,.2.1.3.2.5.5.6.9,0,.1,0,.3,0,.5,0,0,0,.1,0,.2,0,.1,0,.2-.1.3,0,.1-.1.2-.2.3,0,.1-.2.2-.4.2,0,0-.2,0-.3.1,0,0-.2,0-.3,0-.3,0-.5,0-.8-.1,0,0-.1,0-.2,0ZM25.2,54c0,.1-.7,1.2-.7,1.3.1,0,.4.2.7.1.2,0,.4-.1.5-.3.1-.2.1-.4,0-.6,0-.3-.3-.5-.5-.6Z"/>
      <path class="cls-2" d="M27.1,29.8c-.2,0-.4,0-.6.1,0,0-.2,0-.3,0,0,0-.2,0-.2-.2,0-.2,0-.4.2-.5.1,0,.3-.1.4-.2,0,0,0,0,.1,0,.2,0,.4-.1.6-.1,0,0,0,0,.1,0,.3,0,.5,0,.8-.1,0,0,.1,0,.2,0,0,0,0,0,0,0,.1,0,.2,0,.3,0,0,0,0,0,.1.1,0,.1,0,.3,0,.4,0,0,0,0-.2.1-.3,0-.5,0-.8.1,0,0,0,0,0,0,0,0,0,.2,0,.2,0,.3.1.6.2.9,0,.4.2.7.2,1.1,0,.1,0,.3,0,.4,0,.1,0,.3,0,.4,0,.1-.1.2-.2.3,0,0-.2,0-.3,0,0,0-.1-.2-.2-.3,0-.4-.2-.9-.3-1.3-.1-.5-.2-1-.4-1.4,0,0,0,0,0,0Z"/>
      <path class="cls-2" d="M24.9,30.6c0,.1,0,.2.1.3,0,.2.2.4.3.6.2.5.4.9.6,1.4,0,.1.1.2.1.4,0,.1,0,.3-.1.4,0,0-.3,0-.4,0,0,0-.2-.1-.2-.2-.2-.4-.4-.8-.6-1.1-.1-.2-.2-.5-.4-.7,0-.2-.2-.4-.3-.5,0,0,0,0,0,0-.1,0-.2.1-.4.2,0,0-.2,0-.3,0-.2,0-.4,0-.5-.3,0-.2,0-.3.2-.4.1,0,.3-.2.4-.2,0,0,.2-.1.3-.2.2-.1.5-.2.7-.3.2,0,.3-.1.5-.2,0,0,.2,0,.3,0,.2,0,.3.2.3.4,0,.2-.1.3-.3.4,0,0,0,0-.1,0-.1,0-.3.1-.5.2Z"/>
      <path class="cls-2" d="M40.8,32.8c0,0,.2,0,.3,0,.2,0,.2.2.2.4,0,0,0,.2-.1.2-.2.2-.3.3-.5.5,0,0-.2.2-.3.3-.4.4-.8.8-1.2,1.2-.1.1-.2.2-.3.3-.1.1-.3.2-.5.1-.1,0-.2-.2-.2-.3,0-.1,0-.2.2-.3.2-.2.3-.3.5-.5.1-.1.3-.3.4-.4.3-.3.5-.6.8-.8.1-.1.3-.3.4-.4,0,0,.2-.2.2-.3,0,0,.1,0,.2,0Z"/>
    </g>
  </g>
  <g id="hands">
    <g id="right">
      <g>
        <path class="cls-2" d="M45.8,46.7c-.2,0-.4,0-.6,0,0,0-.2,0-.3,0-.1,0-.3,0-.4,0,0,0-.1,0-.2,0-.1,0-.3,0-.4,0-.2,0-.3,0-.5,0-.2,0-.5-.1-.7-.2-.2,0-.4-.2-.6-.3-.1,0-.2-.2-.4-.3,0,0-.1-.2-.1-.3,0,0,0-.2,0-.2,0,0,0,0,0-.1,0,0,0,0,0,0,0,0-.1,0-.2,0-.1,0-.3-.2-.3-.3,0,0,0-.2-.1-.3,0-.2,0-.3,0-.5,0,0,0,0,0-.1,0,0,0,0,0,0,0,0-.2,0-.3-.2,0,0-.1-.2-.2-.2-.1-.2-.2-.4-.2-.6,0,0,0-.2,0-.3,0-.1,0-.2,0-.4,0-.1.2-.3.2-.4,0-.1.2-.2.3-.3,0,0,0,0,0-.1,0,0,0,0,0-.1,0-.1,0-.3,0-.4,0-.1.1-.3.2-.4.1-.2.3-.3.5-.4.2,0,.3-.2.5-.3.2,0,.4-.2.6-.3,0,0,.1,0,.2,0,.1,0,.2,0,.3-.1.1,0,.2,0,.3-.1,0,0,.2,0,.3,0,.1,0,.3,0,.4-.1.2,0,.3,0,.5,0,.1,0,.3,0,.4,0,.1,0,.2,0,.3,0,0,0,0,0,0,0,.1,0,.2,0,.3,0,0,0,.2,0,.3,0,.1,0,.2,0,.4,0,0,0,.2,0,.3,0,.1,0,.2,0,.3,0,.2,0,.3.1.5.2,0,0,0,0,.1,0,.2,0,.4.2.6.3,0,0,.2.1.2.2,0,0,.1.1.2.2,0,.1.1.3.2.4,0,0,0,.2,0,.2,0,.2,0,.4,0,.5,0,0,0,.2,0,.3,0,0,0,.2.1.3,0,0,0,.2,0,.2,0,.1,0,.2,0,.3,0,.2,0,.3,0,.5,0,.2,0,.3-.1.5,0,.2,0,.3,0,.5,0,0,0,0,0,.1,0,.1,0,.3,0,.4,0,0,0,0,0,.1,0,.2,0,.4-.2.6,0,.1,0,.3-.1.5,0,0,0,.1,0,.2,0,0,0,0,0,.1,0,0,0,.2,0,.3,0,0,0,.2,0,.2,0,0,0,.1,0,.2,0,0,0,.2,0,.3,0,.1-.1.3-.2.4,0,0,0,0,0,.1-.1.1-.2.3-.4.4,0,0-.2.1-.3.2-.2.1-.4.2-.7.3-.1,0-.2.1-.3.2,0,0,0,0-.1,0,0,0,0,0,0,0,0,.1-.1.3-.2.4,0,0,0,0,0,0,0,0,0,0,0,0,0,0,0,0,0,0,0-.2,0-.3.1-.5,0-.1,0-.3.1-.4,0-.2,0-.3.1-.5,0,0,0-.1,0-.2,0,0,0,0,0-.1,0,0-.2,0-.3,0-.1,0-.2,0-.3,0,0,0,0,0,0,0ZM40.7,42.1c0,0,0,.2,0,.3,0,.1,0,.2.2.3.1,0,.2.2.4.2.2,0,.3,0,.5,0,0,0,.2,0,.3,0,0,0,.2,0,.3,0,.2,0,.3,0,.5,0,0,0,.1,0,.2,0,.1,0,.2,0,.3,0,0,0,.2,0,.2,0,.1,0,.2,0,.3,0,.2,0,.3,0,.5,0,.1,0,.3,0,.4,0,.1,0,.2,0,.3,0,0,0,.1,0,.2,0,.2,0,.4,0,.6,0,.1,0,.2,0,.4,0,.1,0,.2,0,.3,0,0,0,.2,0,.3,0,.1,0,.3,0,.4.1,0,0,0,0,0,0,0,0,0,0,0,.1,0,0,0,0,0,0,0,0-.3.2-.4.1,0,0,0,0,0,0,0,0,0,0,0,0,0,0-.2,0-.3,0-.1,0-.2,0-.3,0-.1,0-.3,0-.4,0,0,0-.1,0-.2,0-.1,0-.2,0-.3,0-.2,0-.3,0-.5,0-.1,0-.3,0-.4,0-.1,0-.2,0-.4,0,0,0,0,0-.1,0,0,0-.1,0-.2,0,0,0,0,0-.1,0-.1,0-.2,0-.3,0-.1,0-.3,0-.4,0-.2,0-.3,0-.5,0-.1,0-.2,0-.4,0-.1,0-.3,0-.4,0,0,0-.1,0-.2,0-.1,0-.2.2-.2.3,0,0,0,.1,0,.2,0,0,0,.2,0,.3,0,.2.2.3.4.3,0,0,.2,0,.3,0,.2,0,.5,0,.7,0,0,0,.1,0,.2,0,.1,0,.2,0,.3,0,0,0,0,0,.1,0,0,0,.1,0,.2,0,0,0,.2,0,.3,0,.2,0,.3,0,.5,0,.3,0,.5,0,.8,0,.1,0,.2,0,.4,0,0,0,.1,0,.2,0,0,0,.1,0,.2,0,0,0,.2,0,.3,0,.1,0,.3,0,.4.1.1,0,.2.1.2.2,0,0,0,0,0,0,0,0-.1.1-.2.1,0,0-.2,0-.3,0,0,0,0,0,0,0,0,0,0,0-.1,0,0,0,0,0,0,0-.2,0-.3,0-.5,0,0,0-.2,0-.3,0-.2,0-.3,0-.5,0,0,0,0,0,0,0,0,0-.2,0-.2,0-.1,0-.3,0-.4,0-.2,0-.4,0-.5,0,0,0-.1,0-.2,0-.1,0-.2,0-.3,0,0,0-.1,0-.2,0,0,0,0,0-.1,0-.2,0-.3,0-.5,0-.1,0-.2,0-.2.2,0,0,0,.2,0,.2,0,.2.2.2.3.3.1,0,.3.1.4.2,0,0,.2,0,.2,0,0,0,.2,0,.3,0,0,0,.1,0,.2,0,0,0,.1,0,.2,0,0,0,.2,0,.3,0,.1,0,.2,0,.3,0,0,0,.2,0,.3,0,.1,0,.2,0,.4,0,.1,0,.2,0,.3,0,.1,0,.2,0,.3,0,0,0,.2,0,.3,0,.1,0,.2,0,.3,0,0,0,0,0,0,0,0,0,.2,0,.2,0,0,0,.2,0,.3,0,0,0,0,0,0,0,0,0,0,.1-.1.2,0,0-.2,0-.3,0,0,0,0,0,0,0,0,0,0,.2,0,.3,0,0,0,0,0,0,0,0,0,0,.1,0,.1,0,.3-.1.4-.2.1,0,.2-.2.3-.3.1-.1.2-.3.3-.5,0,0,0,0,0,0,0,0,0-.1,0-.2,0,0,0-.2,0-.3,0-.1,0-.2,0-.4,0-.1,0-.3.1-.4,0-.1.1-.3.2-.4,0-.1,0-.3,0-.4,0,0,0-.2,0-.3,0-.2,0-.5.1-.7,0,0,0-.2,0-.3,0,0,0-.2,0-.3,0,0,0,0,0,0,0,0,0-.2,0-.2,0-.2,0-.3-.1-.5,0,0,0-.2,0-.3,0-.2,0-.4,0-.6,0-.1,0-.2,0-.3,0-.2-.1-.3-.2-.5,0,0-.1-.1-.2-.2,0,0,0,0,0,0,0,0,0,0-.1,0-.1,0-.2,0-.3-.1-.2,0-.3,0-.5-.1-.1,0-.2,0-.4-.1-.1,0-.3,0-.4-.1,0,0-.2,0-.2,0-.2,0-.4,0-.7,0-.1,0-.3,0-.4,0,0,0,0,0,0,0-.1,0-.3,0-.4,0-.2,0-.3,0-.5,0,0,0-.2,0-.2,0,0,0-.2,0-.3,0-.2,0-.4.1-.6.2,0,0,0,0,0,0-.1,0-.2,0-.3.2-.1,0-.3.2-.4.3-.1,0-.2.2-.3.2-.1.1-.2.3-.2.5,0,.1.1.2.2.2,0,0,0,0,.1,0,.1,0,.3,0,.4,0,.1,0,.3,0,.4,0,0,0,0,0,.1,0,.1,0,.3,0,.4,0,.2,0,.4,0,.6,0,0,0,.2,0,.2,0,.2,0,.3,0,.5,0,0,0,0,0,.1,0,.2,0,.4,0,.6,0,0,0,0,0,0,0,0,0,.2,0,.2,0,.2,0,.4,0,.6,0,.1,0,.2,0,.3,0,.1,0,.3,0,.4,0,0,0,.1,0,.2,0,0,0,.2,0,.2,0,.1,0,.3,0,.4.2,0,0,0,.2,0,.3,0,0,0,0-.1,0,0,0,0,0-.1,0,0,0-.1,0-.2,0,0,0,0,0-.1,0-.1,0-.3,0-.4,0-.3,0-.5-.1-.8-.1,0,0-.1,0-.2,0,0,0-.1,0-.2,0-.2,0-.3,0-.5,0,0,0,0,0-.1,0-.1,0-.2,0-.4,0-.2,0-.4,0-.5,0-.1,0-.3,0-.4,0-.1,0-.2,0-.3,0,0,0-.2,0-.3,0-.1,0-.3,0-.4,0-.1,0-.3,0-.4,0-.1,0-.3,0-.4.1,0,0-.2,0-.2.1-.1,0-.2.1-.3.2,0,.1-.2.3-.2.4Z"/>
        <path class="cls-6" d="M40.7,42.1c0-.2,0-.3.2-.4,0-.1.2-.2.3-.2,0,0,.2,0,.2-.1.1,0,.3-.1.4-.1.1,0,.3,0,.4,0,.1,0,.3,0,.4,0,0,0,.2,0,.3,0,.1,0,.2,0,.3,0,.1,0,.3,0,.4,0,.2,0,.4,0,.5,0,.1,0,.2,0,.4,0,0,0,0,0,.1,0,.2,0,.3,0,.5,0,0,0,.1,0,.2,0,0,0,.1,0,.2,0,.3,0,.5,0,.8.1.1,0,.3,0,.4,0,0,0,0,0,.1,0,0,0,.1,0,.2,0,0,0,0,0,.1,0,0,0,0,0,.1,0,.1,0,.1-.2,0-.3,0-.1-.2-.2-.4-.2,0,0-.2,0-.2,0,0,0-.1,0-.2,0-.1,0-.3,0-.4,0-.1,0-.2,0-.3,0-.2,0-.4,0-.6,0,0,0-.2,0-.2,0,0,0,0,0,0,0-.2,0-.4,0-.6,0,0,0,0,0-.1,0-.2,0-.3,0-.5,0,0,0-.2,0-.2,0-.2,0-.4,0-.6,0-.1,0-.3,0-.4,0,0,0,0,0-.1,0-.1,0-.3,0-.4,0-.1,0-.3,0-.4,0,0,0,0,0-.1,0-.1,0-.2,0-.2-.2,0-.2,0-.3.2-.5.1,0,.2-.2.3-.2.1,0,.3-.2.4-.3.1,0,.2-.1.3-.2,0,0,0,0,0,0,.2,0,.4-.1.6-.2,0,0,.2,0,.3,0,0,0,.2,0,.2,0,.2,0,.3,0,.5,0,.1,0,.3,0,.4,0,0,0,0,0,0,0,.1,0,.3,0,.4,0,.2,0,.4,0,.7,0,0,0,.2,0,.2,0,.1,0,.3,0,.4.1.1,0,.2,0,.4.1.2,0,.3,0,.5.1.1,0,.2,0,.3.1,0,0,0,0,.1,0,0,0,0,0,0,0,0,0,.2.1.2.2.1.1.2.3.2.5,0,.1,0,.2,0,.3,0,.2,0,.4,0,.6,0,0,0,.2,0,.3,0,.2,0,.3.1.5,0,0,0,.2,0,.2,0,0,0,0,0,0,0,0,0,.2,0,.3,0,0,0,.2,0,.3,0,.2-.1.4-.1.7,0,0,0,.2,0,.3,0,.1,0,.3,0,.4,0,.1-.1.3-.2.4,0,.1,0,.2-.1.4,0,.1,0,.2,0,.4,0,0,0,.2,0,.3,0,0,0,.1,0,.2,0,0,0,0,0,0,0,.2-.2.4-.3.5,0,0-.2.2-.3.3-.1,0-.3.2-.4.2,0,0,0,0-.1,0,0,0,0,0,0,0,0,0,0-.2,0-.3,0,0,0,0,0,0,0,0,.2,0,.3,0,0,0,.1-.1.1-.2,0,0,0,0,0,0,0,0-.2,0-.3,0,0,0-.2,0-.2,0,0,0,0,0,0,0-.1,0-.2,0-.3,0,0,0-.2,0-.3,0-.1,0-.2,0-.3,0-.1,0-.2,0-.3,0-.1,0-.2,0-.4,0,0,0-.2,0-.3,0-.1,0-.2,0-.3,0,0,0-.2,0-.3,0,0,0-.1,0-.2,0,0,0-.1,0-.2,0,0,0-.2,0-.3,0,0,0-.2,0-.2,0-.1,0-.3,0-.4-.2-.1,0-.3-.2-.3-.3,0,0,0-.1,0-.2,0,0,0-.2.2-.2.2,0,.3,0,.5,0,0,0,0,0,.1,0,0,0,.1,0,.2,0,.1,0,.2,0,.3,0,0,0,.1,0,.2,0,.2,0,.4,0,.5,0,.1,0,.3,0,.4,0,0,0,.2,0,.2,0,0,0,0,0,0,0,.2,0,.3,0,.5,0,0,0,.2,0,.3,0,.2,0,.3,0,.5,0,0,0,0,0,0,0,0,0,0,0,.1,0,0,0,0,0,0,0,0,0,.2,0,.3,0,0,0,.2,0,.2-.1,0,0,0,0,0,0,0,0-.1-.1-.2-.2-.1,0-.3,0-.4-.1,0,0-.2,0-.3,0,0,0-.1,0-.2,0,0,0-.1,0-.2,0-.1,0-.2,0-.4,0-.3,0-.5,0-.8,0-.2,0-.3,0-.5,0,0,0-.2,0-.3,0,0,0-.1,0-.2,0,0,0,0,0-.1,0-.1,0-.2,0-.3,0,0,0-.1,0-.2,0-.2,0-.5,0-.7,0,0,0-.2,0-.3,0-.2,0-.3-.1-.4-.3,0,0,0-.2,0-.3,0,0,0-.1,0-.2,0-.1.1-.2.2-.3,0,0,.1,0,.2,0,.1,0,.3,0,.4,0,.1,0,.2,0,.4,0,.2,0,.3,0,.5,0,.1,0,.3,0,.4,0,.1,0,.2,0,.3,0,0,0,0,0,.1,0,0,0,.1,0,.2,0,0,0,0,0,.1,0,.1,0,.2,0,.4,0,.1,0,.3,0,.4,0,.2,0,.3,0,.5,0,.1,0,.2,0,.3,0,0,0,.1,0,.2,0,.1,0,.3,0,.4,0,.1,0,.2,0,.3,0,0,0,.2,0,.3,0,0,0,0,0,0,0,0,0,0,0,0,0,0,0,.3,0,.4-.1,0,0,0,0,0,0,0,0,0,0,0-.1,0,0,0,0,0,0-.1,0-.3-.1-.4-.1,0,0-.2,0-.3,0-.1,0-.2,0-.3,0-.1,0-.2,0-.4,0-.2,0-.4,0-.6,0,0,0-.1,0-.2,0-.1,0-.2,0-.3,0-.1,0-.3,0-.4,0-.2,0-.3,0-.5,0-.1,0-.2,0-.3,0,0,0-.2,0-.2,0-.1,0-.2,0-.3,0,0,0-.1,0-.2,0-.2,0-.3,0-.5,0,0,0-.2,0-.3,0,0,0-.2,0-.3,0-.2,0-.3,0-.5,0-.1,0-.3,0-.4-.2,0,0-.2-.2-.2-.3,0,0,0-.2,0-.3Z"/>
      </g>
    </g>
    <g id="left">
      <g>
        <path class="cls-2" d="M19.4,44.8c0,.1,0,.2,0,.4,0,0,0,.1,0,.2,0,.1-.1.2-.2.3,0,0-.1.1-.2.2,0,0-.2,0-.3.1-.1,0-.3.1-.4.2-.2,0-.3,0-.5.1-.2,0-.4,0-.5.1-.2,0-.4,0-.6.1-.2,0-.4,0-.6,0,0,0-.2,0-.3,0,0,0-.2,0-.3,0-.1,0-.2,0-.3,0-.2,0-.3,0-.5,0,0,0-.1,0,0,.1,0,.2,0,.3,0,.5,0,0,0,0,0,0,0,.2.1.5.2.7,0,0,0,.2,0,.3,0,0,0,0,0,0,0,0,0,0,0,0,0-.1-.1-.3-.2-.4,0,0,0,0,0,0,0,0-.1,0-.2,0-.2,0-.4-.2-.6-.3-.2,0-.3-.2-.4-.3-.1,0-.2-.2-.3-.3,0,0-.1-.1-.2-.2,0,0,0,0,0-.1-.2-.2-.2-.4-.3-.6,0-.1,0-.2,0-.4,0-.1,0-.3,0-.4,0,0,0-.1,0-.2,0,0,0-.1,0-.2,0-.1,0-.3-.1-.4,0-.1,0-.2-.1-.4,0-.1,0-.3,0-.4,0-.1,0-.2,0-.4,0-.1,0-.3,0-.4,0-.1,0-.2,0-.3,0,0,0-.2,0-.3,0-.2,0-.3,0-.5,0-.1,0-.2,0-.3,0-.3.2-.5.3-.7,0-.1,0-.2,0-.3,0-.1,0-.2,0-.4,0,0,0-.1,0-.2,0-.2,0-.3.1-.5,0,0,0-.1.1-.2,0,0,0,0,.1-.1,0,0,.1-.1.2-.2,0,0,.2-.1.3-.2.2,0,.4-.2.6-.3.2,0,.4-.1.5-.2.1,0,.2,0,.3,0,.2,0,.5-.1.7-.2.3,0,.5,0,.8,0,.2,0,.4,0,.7,0,.1,0,.2,0,.3,0,0,0,.2,0,.3,0,.2,0,.3,0,.5.2.2,0,.5.2.7.3.2,0,.3.1.5.2.2,0,.4.2.5.3,0,0,.1,0,.2.1,0,0,.2.2.3.3.1.2.2.4.2.6,0,.1,0,.2,0,.3,0,0,0,0,0,.1,0,0,.2.1.3.2.1.1.2.2.3.4,0,.2,0,.4,0,.6,0,.2,0,.3-.1.5,0,.1-.1.3-.2.4,0,.1-.2.2-.4.3,0,0,0,0,0,0,0,.1,0,.3,0,.4,0,.1,0,.2,0,.3,0,.2-.2.3-.3.4,0,0-.2.1-.3.2,0,0,0,0,0,0ZM14.6,47.1s0,0,0,0c0-.1,0-.2,0-.3,0,0,0,0,0,0,0,0-.2,0-.3,0,0,0-.1,0-.1-.2,0,0,0,0,0-.1,0,0,0,0,.1,0,0,0,0,0,.1,0,0,0,.1,0,.2,0,0,0,.2,0,.3,0,0,0,.2,0,.3,0,.1,0,.2,0,.4,0,.2,0,.3,0,.5,0,.2,0,.4,0,.6-.1.2,0,.3,0,.5-.1.3,0,.5-.1.8-.2.2,0,.5-.1.7-.3.2,0,.3-.2.4-.5,0-.1,0-.2-.2-.2,0,0-.2,0-.3,0-.1,0-.2,0-.3,0,0,0,0,0-.1,0-.1,0-.2,0-.3,0,0,0-.2,0-.3,0-.2,0-.3,0-.5,0,0,0,0,0-.1,0-.2,0-.5,0-.7,0-.1,0-.2,0-.3,0,0,0-.2,0-.3,0-.1,0-.2,0-.3,0,0,0-.2,0-.3,0,0,0,0,0-.1,0,0,0,0,0,0,0,0,0,0,0,0,0,0,0-.1,0-.2,0,0,0-.1,0-.2,0,0,0,0,0,0,0,0,0-.1,0-.1-.2,0-.1.1-.2.2-.2,0,0,.2,0,.2,0,0,0,.2,0,.3,0,0,0,0,0,0,0,0,0,.1,0,.2,0,.1,0,.2,0,.4,0,.2,0,.3,0,.5,0,.3,0,.5,0,.8,0,.1,0,.3,0,.4,0,.2,0,.4,0,.5,0,.4,0,.7,0,1.1,0,.1,0,.2,0,.3,0,0,0,0,0,0,0,.2,0,.4-.2.4-.4,0,0,0-.2,0-.2,0,0,0-.1,0-.2,0-.1-.1-.2-.3-.3-.2,0-.4-.1-.6-.1,0,0,0,0,0,0-.1,0-.2,0-.4,0,0,0-.2,0-.3,0-.2,0-.3,0-.5,0,0,0-.2,0-.3,0,0,0,0,0-.1,0,0,0-.2,0-.3,0,0,0,0,0-.1,0,0,0,0,0,0,0-.1,0-.2,0-.4,0-.1,0-.2,0-.3,0,0,0,0,0,0,0-.1,0-.3,0-.4,0,0,0-.2,0-.3,0,0,0-.2,0-.2,0-.1,0-.2,0-.3,0-.1,0-.3,0-.4,0,0,0-.1,0-.2,0,0,0,0,0,0,0,0,0-.2,0-.3,0,0,0,0-.1,0-.2,0,0,0,0,0,0,0,0,0,0,0,0,0,0,0,0,.1,0,.1,0,.3,0,.4-.1.1,0,.2,0,.3,0,.1,0,.3,0,.4,0,.3,0,.6,0,.9,0,.2,0,.5,0,.7,0,.1,0,.3,0,.4,0,.2,0,.5,0,.7,0,.1,0,.2,0,.4,0,.2,0,.4,0,.5,0,.1,0,.3,0,.4,0,0,0,.2,0,.3,0,.1,0,.2,0,.3,0,.2,0,.4,0,.5-.1,0,0,.2-.1.2-.2,0,0,0-.2,0-.3,0,0,0-.2,0-.3,0-.1,0-.2-.2-.3,0,0,0-.1-.1-.1-.1,0-.3-.1-.4-.2,0,0-.1,0-.2,0-.2,0-.3,0-.5,0,0,0-.1,0-.2,0-.1,0-.3,0-.4,0-.1,0-.3,0-.4,0-.1,0-.3,0-.4,0-.2,0-.3,0-.5,0-.2,0-.4,0-.6,0,0,0-.1,0-.2,0-.1,0-.2,0-.4,0-.2,0-.4,0-.6,0-.1,0-.3,0-.4,0-.1,0-.2,0-.4,0-.1,0-.3,0-.4,0,0,0-.1,0-.2,0,0,0,0,0,0,0,0,0-.1,0-.2,0,0,0-.1-.2,0-.2,0,0,.1-.1.2-.1.1,0,.3,0,.4-.1.2,0,.4,0,.7-.1.1,0,.3,0,.4,0,.1,0,.2,0,.3,0,.2,0,.3,0,.5,0,.2,0,.4,0,.6,0,.1,0,.2,0,.3,0,.3,0,.5,0,.8,0,.3,0,.5,0,.8,0,.1,0,.2,0,.3,0,.2,0,.3,0,.5.1,0,0,0,0,0,0,0,0,.2-.1.2-.2,0-.2-.1-.4-.3-.5,0,0-.2-.1-.2-.2-.1,0-.2-.1-.3-.2,0,0-.2,0-.3-.1-.1,0-.3-.1-.4-.2,0,0-.1,0-.2,0-.1,0-.2,0-.3,0-.1,0-.3,0-.4-.1-.2,0-.3,0-.5,0,0,0-.2,0-.3,0-.1,0-.2,0-.3,0-.2,0-.4,0-.6,0,0,0-.2,0-.3,0,0,0-.1,0-.2,0,0,0-.2,0-.3,0,0,0-.2,0-.3,0-.2,0-.4.1-.6.2,0,0-.1,0-.2,0-.1,0-.2,0-.3.1,0,0,0,0,0,0-.1,0-.2.2-.3.3,0,.1-.1.2-.2.4,0,.1,0,.2,0,.4,0,.1,0,.2,0,.3,0,.1,0,.2,0,.3,0,.1,0,.3,0,.4,0,0,0,0,0,.1,0,.1,0,.2,0,.3,0,.1,0,.3,0,.4,0,.2.1.3.2.5,0,.1,0,.2,0,.3,0,.1,0,.2,0,.3,0,.1,0,.3,0,.4,0,.2.1.4.2.5,0,.2.1.4.1.5,0,0,0,.2,0,.3,0,0,0,.2,0,.3,0,0,0,.1,0,.2,0,0,0,0,0,0,0,.1.1.3.3.4.2.2.5.4.7.5,0,0,.1,0,.2,0Z"/>
        <path class="cls-6" d="M14.6,47.1c0,0-.1,0-.2,0-.3-.1-.5-.3-.7-.5-.1-.1-.2-.2-.3-.4,0,0,0,0,0,0,0,0,0,0,0-.2,0,0,0-.2,0-.3,0,0,0-.2,0-.3,0-.2,0-.4-.1-.5,0-.2-.2-.3-.2-.5,0-.1,0-.3,0-.4,0-.1,0-.2,0-.3,0-.1,0-.2,0-.3,0-.2-.1-.4-.2-.5,0-.1,0-.3,0-.4,0-.1,0-.2,0-.3,0,0,0,0,0-.1,0-.1,0-.3,0-.4,0-.1,0-.2,0-.3,0-.1,0-.2,0-.3,0-.1,0-.2,0-.4,0-.1,0-.2.2-.4,0-.1.1-.2.3-.3,0,0,0,0,0,0,0,0,.2-.1.3-.1,0,0,.2,0,.2,0,.2,0,.4-.1.6-.2,0,0,.2,0,.3,0,0,0,.2,0,.3,0,0,0,.1,0,.2,0,0,0,.2,0,.3,0,.2,0,.4,0,.6,0,.1,0,.2,0,.3,0,0,0,.2,0,.3,0,.2,0,.3,0,.5,0,.1,0,.3,0,.4.1.1,0,.2,0,.3,0,0,0,.1,0,.2,0,.2,0,.3.1.4.2,0,0,.2,0,.3.1.1,0,.2.1.3.2,0,0,.2.1.2.2.2.1.3.3.3.5,0,0-.1.2-.2.2,0,0,0,0,0,0-.2,0-.3,0-.5-.1-.1,0-.2,0-.3,0-.3,0-.5,0-.8,0-.3,0-.5,0-.8,0-.1,0-.2,0-.3,0-.2,0-.4,0-.6,0-.2,0-.3,0-.5,0-.1,0-.2,0-.3,0-.1,0-.3,0-.4,0-.2,0-.4,0-.7.1-.1,0-.3,0-.4.1,0,0-.1,0-.2.1,0,0,0,.2,0,.2,0,0,.1,0,.2,0,0,0,0,0,0,0,0,0,.1,0,.2,0,.1,0,.3,0,.4,0,.1,0,.2,0,.4,0,.1,0,.3,0,.4,0,.2,0,.4,0,.6,0,.1,0,.2,0,.4,0,0,0,.1,0,.2,0,.2,0,.4,0,.6,0,.2,0,.3,0,.5,0,.1,0,.3,0,.4,0,.1,0,.3,0,.4,0,.1,0,.3,0,.4,0,0,0,.1,0,.2,0,.2,0,.3,0,.5,0,0,0,.1,0,.2,0,.1,0,.3.1.4.2s.1,0,.1.1c0,0,.1.2.2.3,0,0,0,.2,0,.3,0,0,0,.2,0,.3,0,0-.1.2-.2.2-.1.1-.3.2-.5.1-.1,0-.2,0-.3,0,0,0-.2,0-.3,0-.1,0-.3,0-.4,0-.2,0-.4,0-.5,0-.1,0-.2,0-.4,0-.2,0-.5,0-.7,0-.1,0-.3,0-.4,0-.2,0-.5,0-.7,0-.3,0-.6,0-.9,0-.1,0-.3,0-.4,0-.1,0-.2,0-.3,0-.1,0-.3,0-.4.1,0,0,0,0-.1,0,0,0,0,0,0,0,0,0,0,0,0,0,0,0,0,.1,0,.2,0,0,.2,0,.3,0,0,0,0,0,0,0,0,0,.1,0,.2,0,.1,0,.3,0,.4,0,.1,0,.2,0,.3,0,0,0,.2,0,.2,0,0,0,.2,0,.3,0,.1,0,.3,0,.4,0,0,0,0,0,0,0,.1,0,.2,0,.3,0,.1,0,.2,0,.4,0,0,0,0,0,0,0,0,0,0,0,.1,0,0,0,.2,0,.3,0,0,0,0,0,.1,0,0,0,.2,0,.3,0,.2,0,.3,0,.5,0,0,0,.2,0,.3,0,.1,0,.2,0,.4,0,0,0,0,0,0,0,.2,0,.4,0,.6.1.1,0,.2.1.3.3,0,0,0,.1,0,.2,0,0,0,.2,0,.2,0,.2-.2.3-.4.4,0,0,0,0,0,0-.1,0-.2,0-.3,0-.4,0-.7,0-1.1,0-.2,0-.4,0-.5,0-.1,0-.3,0-.4,0-.3,0-.5,0-.8,0-.2,0-.3,0-.5,0-.1,0-.2,0-.4,0,0,0-.1,0-.2,0,0,0,0,0,0,0-.1,0-.2,0-.3,0,0,0-.2,0-.2,0,0,0-.2,0-.2.2,0,0,0,.2.1.2,0,0,0,0,0,0,0,0,.1,0,.2,0,0,0,.1,0,.2,0,0,0,0,0,0,0,0,0,0,0,0,0,0,0,0,0,.1,0,0,0,.2,0,.3,0,.1,0,.2,0,.3,0,0,0,.2,0,.3,0,.1,0,.2,0,.3,0,.2,0,.5,0,.7,0,0,0,0,0,.1,0,.2,0,.3,0,.5,0,0,0,.2,0,.3,0,.1,0,.2,0,.3,0,0,0,0,0,.1,0,.1,0,.2,0,.3,0,0,0,.2,0,.3,0,.1,0,.2.1.2.2,0,.2-.2.4-.4.5-.2.1-.5.2-.7.3-.3,0-.5.1-.8.2-.2,0-.3,0-.5.1-.2,0-.4,0-.6.1-.2,0-.3,0-.5,0-.1,0-.2,0-.4,0,0,0-.2,0-.3,0,0,0-.2,0-.3,0,0,0-.1,0-.2,0,0,0,0,0-.1,0,0,0,0,0-.1,0,0,0,0,0,0,.1,0,0,0,.1.1.2,0,0,.2,0,.3,0,0,0,0,0,0,0,0,.1,0,.2,0,.3,0,0,0,0,0,0Z"/>
      </g>
    </g>
  </g>
</svg>