<?xml version="1.0" encoding="UTF-8"?>
<svg id="Layer_1" xmlns="http://www.w3.org/2000/svg" version="1.1" viewBox="0 0 512 512">
	<defs>
		<style>
			.icon-fill {
				fill: #142f56;
				opacity: 1;
			}
		</style>
	</defs>
  <path class="icon-fill" d="M166.3,131.7c-17.7,0-32,14.3-32,32s14.3,32,32,32h57.7v153.2c0,17.7,14.3,32,32,32s32-14.3,32-32v-153.2h57.7c17.7,0,32-14.3,32-32s-14.3-32-32-32h-179.3ZM112.8,112.9H14.8V14.9h98v98ZM497,112.9h-98V14.9h98v98ZM112.8,496.9H14.8v-98h98v98ZM497,496.9h-98v-98h98v98ZM235.1,87.3h-89.2v-45.6h89.2v45.6ZM365.5,87.3h-89.2v-45.6h89.2v45.6ZM235.1,470.9h-89.2v-45.6h89.2v45.6ZM365.5,470.9h-89.2v-45.6h89.2v45.6ZM40.2,236.5v-89.2h45.6v89.2h-45.6ZM40.2,367v-89.2h45.6v89.2h-45.6ZM424.4,236.5v-89.2h45.6v89.2h-45.6ZM424.4,367v-89.2h45.6v89.2h-45.6Z"/>
</svg>