<?xml version="1.0" encoding="utf-8"?>
<!-- Generator: Adobe Illustrator 27.0.1, SVG Export Plug-In . SVG Version: 6.00 Build 0)  -->
<svg version="1.1" id="Layer_1" xmlns="http://www.w3.org/2000/svg" xmlns:xlink="http://www.w3.org/1999/xlink" x="0px" y="0px"
	 viewBox="0 0 60 60" style="enable-background:new 0 0 60 60;" xml:space="preserve">
<style type="text/css">
	.st0{fill:none;stroke:#00214D;stroke-width:2;stroke-linecap:round;stroke-linejoin:round;}
</style>
<g id="Group_17201" transform="translate(-925.003 13620.977)">
	<path id="Path_36571" class="st0" d="M982.1-13608h-54.1c-1.1,0-1.9,0.9-1.9,2v40c0,1.1,0.9,2,1.9,2h54.1c1.1,0,1.9-0.9,1.9-2v-40
		C984-13607.1,983.2-13607.9,982.1-13608z"/>
	<line id="Line_16315" class="st0" x1="937" y1="-13591" x2="926" y2="-13591"/>
	<line id="Line_16316" class="st0" x1="984" y1="-13591" x2="973" y2="-13591"/>
	<line id="Line_16317" class="st0" x1="955" y1="-13564.6" x2="955" y2="-13591"/>
	<path id="Path_36572" class="st0" d="M944.9-13608.3v-5.8c0.1-2.2,1.8-3.9,4-3.9H961c2.2,0,3.9,1.7,4,3.9v5.8"/>
	<line id="Line_16318" class="st0" x1="964.7" y1="-13591" x2="945.2" y2="-13591"/>
	<path id="Path_36573" class="st0" d="M937-13587c0,2.2,1.8,4,4,4s4-1.8,4-4v-7h-8V-13587z"/>
	<path id="Path_36574" class="st0" d="M965-13587c0,2.2,1.8,4,4,4s4-1.8,4-4v-7h-8V-13587z"/>
</g>
</svg>
