<?xml version="1.0" encoding="UTF-8"?>
<svg id="a" data-name="icon" xmlns="http://www.w3.org/2000/svg" viewBox="0 0 512 512">
	<defs>
		<style>
			.icon-fill {
				fill: #666;
				opacity: 1;
			}
		</style>
	</defs>
  <path class="icon-fill" d="M256,0C114.62,0,0,114.62,0,256s114.62,256,256,256,256-114.62,256-256S397.38,0,256,0ZM64.01,256c0-41.4,13.11-79.74,35.39-111.1l267.7,267.7c-31.36,22.29-69.7,35.39-111.1,35.39-106.03,0-191.99-85.96-191.99-191.99ZM412.18,367.68L144.32,99.82c31.47-22.54,70.02-35.81,111.68-35.81,106.03,0,191.99,85.96,191.99,191.99,0,41.66-13.27,80.21-35.81,111.68Z"/>
</svg>