<?xml version="1.0" encoding="utf-8"?>
<!-- Generator: Adobe Illustrator 16.0.0, SVG Export Plug-In . SVG Version: 6.00 Build 0)  -->
<!DOCTYPE svg PUBLIC "-//W3C//DTD SVG 1.1//EN" "http://www.w3.org/Graphics/SVG/1.1/DTD/svg11.dtd">
<svg version="1.1" xmlns="http://www.w3.org/2000/svg" xmlns:xlink="http://www.w3.org/1999/xlink" x="0px" y="0px"
	 width="384.167px" height="104.167px" viewBox="0 0 384.167 104.167" enable-background="new 0 0 384.167 104.167"
	 xml:space="preserve">
<g id="dark_bg" display="none">
	<rect x="-204.333" y="-77.329" display="inline" width="792" height="277.499"/>
</g>
<g id="logo">
	<g>
		<rect x="89.167" y="29.923" fill-rule="evenodd" clip-rule="evenodd" fill="#FFFFFF" width="99.167" height="34.166"/>
		<path fill-rule="evenodd" clip-rule="evenodd" fill="#FFFFFF" d="M221.472,54.328L195.771,80.15c-2.352,2.371-6.196,2.371-8.556,0
			c-1.203-1.203-1.798-2.795-1.776-4.375V18.252c-0.032-1.593,0.562-3.185,1.776-4.397c2.36-2.361,6.205-2.361,8.556,0
			l25.701,25.831C225.511,43.726,225.511,50.279,221.472,54.328L221.472,54.328z"/>
	</g>
	<g>
		<g>
			<path fill="#F05123" d="M255.632,27.159c3.521-6.111,11.332-8.211,17.443-4.691c6.113,3.525,8.211,11.335,4.691,17.444
				l-22.537,39.102c-3.52,6.109-11.332,8.213-17.443,4.689c-6.111-3.52-8.211-11.334-4.688-17.443L255.632,27.159z"/>
			<path fill="#F05123" d="M339.071,66.259l-22.533-39.101c-1.4-2.426-3.479-4.207-5.854-5.266
				c-0.031-0.018-0.064-0.031-0.098-0.045c-0.33-0.146-0.664-0.277-1.006-0.393c-0.105-0.035-0.213-0.068-0.318-0.1
				c-0.27-0.086-0.543-0.164-0.818-0.229c-0.156-0.039-0.318-0.072-0.477-0.105c-0.23-0.045-0.463-0.086-0.695-0.121
				c-0.189-0.027-0.379-0.047-0.568-0.066c-0.213-0.021-0.426-0.035-0.639-0.049c-0.203-0.008-0.408-0.014-0.611-0.014
				c-0.201,0-0.404,0.006-0.609,0.014c-0.213,0.014-0.426,0.027-0.639,0.049c-0.189,0.02-0.377,0.039-0.568,0.068
				c-0.232,0.033-0.461,0.074-0.691,0.119c-0.162,0.033-0.324,0.066-0.484,0.107c-0.27,0.062-0.537,0.141-0.803,0.221
				c-0.113,0.037-0.225,0.07-0.338,0.107c-0.328,0.113-0.654,0.242-0.975,0.381c-0.045,0.02-0.09,0.037-0.135,0.059
				c-2.369,1.062-4.441,2.84-5.836,5.262l-22.537,39.101c-3.521,6.109-1.422,13.924,4.689,17.443
				c6.113,3.523,13.92,1.42,17.443-4.689l11.482-19.925l11.484,19.925c3.523,6.109,11.33,8.213,17.445,4.689
				C340.493,80.183,342.591,72.369,339.071,66.259z"/>
		</g>
		<path fill="#F05123" d="M347.571,21.77c0-7.055,5.719-12.775,12.771-12.773c7.053-0.002,12.773,5.719,12.773,12.773v31.24
			c0,7.055-5.721,12.769-12.773,12.769s-12.771-5.716-12.771-12.769V21.77z"/>
		<circle fill="#F05123" cx="360.344" cy="85.875" r="12.772"/>
	</g>
	<path fill-rule="evenodd" clip-rule="evenodd" fill="#FFFFFF" d="M98.283,14.126l55.759,55.5c5.123,5.076,5.123,13.379,0,18.477
		c-2.596,2.598-6.034,3.883-9.448,3.836H20.375c-3.438,0.07-6.877-1.215-9.496-3.836c-5.099-5.098-5.099-13.4,0-18.477l55.782-55.5
		C75.385,5.402,89.536,5.402,98.283,14.126L98.283,14.126z"/>
	<path fill-rule="evenodd" clip-rule="evenodd" d="M72.93,36.509c5.191,5.192,5.191,13.588,0,18.781L49.448,78.748
		c-5.193,5.193-13.59,5.193-18.781,0c-5.192-5.191-5.192-13.588,0-18.757l23.482-23.481C59.34,31.316,67.737,31.316,72.93,36.509
		L72.93,36.509z"/>
	<path fill-rule="evenodd" clip-rule="evenodd" fill="#4764AF" d="M110.562,36.673l23.482,23.155c5.192,5.191,5.192,13.587,0,18.781
		c-5.192,5.191-13.612,5.191-18.805,0l-14.08-14.385L87.056,78.609c-5.146,5.191-13.565,5.191-18.757,0
		c-5.193-5.193-5.193-13.59,0-18.781l23.458-23.155C96.95,31.48,105.37,31.48,110.562,36.673L110.562,36.673z"/>
</g>
</svg>
